<svg width="236" height="43" viewBox="0 0 236 43" fill="none" xmlns="http://www.w3.org/2000/svg">
<g clip-path="url(#clip0_624_1503)">
<path d="M28.9214 0.987307C33.2634 -2.57722 49.0324 3.69371 42.2113 16.837C45.1451 16.3969 51.3574 18.9053 50.4626 24.9268H28.9214V0.987307Z" fill="#93BEA4"/>
<path d="M12.5359 35.7085C6.05959 34.2123 1.98898 30.0463 0.507431 24.5162C-0.996125 18.9053 0.940162 12.9571 5.0181 8.82783C20.8091 -7.16853 47.3304 1.01668 37.0842 22.1325C36.9155 22.4772 37.3335 22.7852 37.6196 22.5359C46.6556 14.6294 57.3638 29.1662 47.2937 34.7917C41.1841 37.9308 33.1089 39.0823 22.7234 37.8941C21.5865 37.7621 20.4644 38.1582 19.6503 38.965C18.3887 40.2045 16.9365 41.3266 15.2276 42.2728C14.5822 42.6248 13.8414 42.0014 14.0468 41.2973C14.3988 40.1091 14.6262 38.9356 14.5822 37.9675C14.5308 36.8453 13.6434 35.9578 12.5432 35.7011L12.5359 35.7085Z" fill="#C6E5BE"/>
<path d="M28.3344 18.2893C27.711 18.0473 26.9775 18.0106 26.4054 18.3553C27.4029 17.6732 28.2904 16.7784 28.7451 15.6636C29.1999 14.5488 29.1632 13.1919 28.4664 12.2091C27.5863 10.9842 25.826 10.6028 24.3885 11.0649C22.9509 11.527 21.8214 12.6785 21.044 13.9693C22.0708 12.4438 21.4034 10.1701 19.8778 9.1433C18.3523 8.12381 16.2473 8.2485 14.6337 9.1433C13.1595 9.95742 12.0007 11.4536 11.8833 13.1332C11.788 14.5341 12.5581 15.9936 13.7682 16.6464C12.118 16.5437 10.4017 17.1818 9.38226 18.48C8.2601 19.9102 8.15008 22.1032 9.28692 23.5261C10.4238 24.9416 12.7634 25.2643 14.1203 24.0542C12.7781 24.8169 12.272 26.6726 12.8514 28.1101C13.4382 29.5403 14.9271 30.4938 16.4673 30.6478C18.0075 30.8018 19.5624 30.2444 20.8166 29.3423C21.4327 28.8949 22.0048 28.3595 22.3642 27.692C22.7236 27.0246 22.8629 26.2105 22.6136 25.4917C24.1098 26.1298 25.8407 26.2985 27.3736 25.7484C28.9065 25.1983 30.1827 23.8635 30.454 22.2646C30.7254 20.6657 29.86 18.8761 28.3491 18.282L28.3344 18.2893Z" fill="#C2A0E8"/>
<path d="M68.7494 35.3535C67.9793 34.9354 67.4219 34.378 67.0698 33.6739C66.7177 33.0211 66.1457 31.5322 65.3535 29.2072C64.5614 26.8822 63.8133 24.5425 63.1092 22.1809L61.6423 17.0541L60.1754 12.0447C60.1021 11.8173 60.0654 11.6046 60.0654 11.4066C60.0654 10.7538 60.3515 10.2184 60.9309 9.80769C61.5103 9.39696 62.1777 9.18427 62.9259 9.18427C64.2534 9.18427 65.0602 9.62433 65.3389 10.5045C66.043 12.7635 66.7984 15.3892 67.5979 18.3816L68.3533 21.0954C69.1601 24.0365 69.7542 26.0754 70.1429 27.2196C70.5316 28.3638 70.8617 28.9358 71.1404 28.9358C71.4411 28.9358 71.8005 28.3124 72.2112 27.0729C72.6293 25.8261 73.1574 23.8384 73.8101 21.1027C74.7416 17.1568 75.6584 13.6289 76.5605 10.5191C76.8392 9.639 77.602 9.19893 78.8562 9.19893C79.8097 9.19893 80.5725 9.38229 81.1372 9.74168C81.702 10.1084 81.988 10.6511 81.988 11.3773C81.988 11.678 81.9513 12.008 81.878 12.3601C81.5479 13.7389 80.8072 16.438 79.6557 20.4573L79.1643 22.1515C78.5115 24.4619 77.8074 26.8015 77.0519 29.1779C76.2965 31.5542 75.7831 33.0285 75.5044 33.6079C75.1743 34.312 74.6169 34.8841 73.8248 35.3241C73.0327 35.7642 72.1746 35.9842 71.2431 35.9842C70.3116 35.9842 69.5048 35.7789 68.7347 35.3608L68.7494 35.3535Z" fill="#B2D4AB"/>
<path d="M87.4373 33.5052C85.567 31.833 84.6282 29.4933 84.6282 26.4789C84.6282 24.5206 85.0389 22.775 85.8677 21.2421C86.6965 19.7092 87.87 18.521 89.3882 17.6629C90.9064 16.8121 92.696 16.3794 94.757 16.3794C96.818 16.3794 98.6736 16.8194 100.258 17.6996C101.842 18.5797 103.067 19.8045 103.932 21.3741C104.798 22.9437 105.231 24.7333 105.231 26.7429C105.231 29.684 104.314 31.9577 102.48 33.5786C100.647 35.1995 98.1602 36.0063 95.021 36.0063C91.8819 36.0063 89.3002 35.1701 87.4299 33.4979L87.4373 33.5052ZM98.5122 30.5275C99.3557 29.662 99.7737 28.3711 99.7737 26.6696C99.7737 24.968 99.363 23.5524 98.5489 22.3569C97.7348 21.1614 96.5319 20.5673 94.955 20.5673C93.4735 20.5673 92.2926 21.1101 91.4125 22.1882C90.5324 23.2664 90.0923 24.7113 90.0923 26.5229C90.0923 28.3345 90.5177 29.6033 91.3758 30.4981C92.2266 31.3929 93.4221 31.833 94.955 31.833C96.4879 31.833 97.6761 31.4003 98.5122 30.5348V30.5275Z" fill="#B2D4AB"/>
<path d="M112.529 34.7668C111.062 33.9893 109.918 32.8965 109.103 31.4883C108.289 30.0801 107.879 28.4592 107.879 26.6256C107.879 24.792 108.304 23.0244 109.162 21.4841C110.013 19.9366 111.201 18.7191 112.719 17.8316C114.238 16.9368 115.954 16.4967 117.861 16.4967C119.892 16.4967 121.711 16.9881 123.303 17.9636C124.894 18.9464 125.995 20.208 126.596 21.7702C126.794 22.2469 126.897 22.665 126.897 23.0097C126.897 23.8385 126.317 24.3886 125.166 24.6673C124.836 24.7406 124.535 24.7773 124.264 24.7773C123.758 24.7773 123.354 24.6453 123.039 24.3812C122.723 24.1172 122.379 23.6845 122.005 23.083C121.528 22.3569 120.985 21.7702 120.384 21.3301C119.782 20.8901 119.042 20.67 118.161 20.67C116.753 20.67 115.602 21.2421 114.692 22.3863C113.79 23.5304 113.335 24.968 113.335 26.6989C113.335 28.2831 113.746 29.5153 114.56 30.4101C115.374 31.3049 116.563 31.745 118.117 31.745C119.672 31.745 120.699 31.3636 121.411 30.5935C122.129 29.8307 122.481 28.9286 122.481 27.9018C122.481 27.4984 122.687 27.1316 123.105 26.7943C123.523 26.4569 124.08 26.2882 124.777 26.2882C125.628 26.2882 126.281 26.4495 126.721 26.7796C127.161 27.1096 127.381 27.6817 127.381 28.5105C127.381 29.7647 127.051 30.9602 126.398 32.0897C125.745 33.2192 124.682 34.1433 123.215 34.8621C121.748 35.5809 119.841 35.9329 117.509 35.9329C115.653 35.9329 113.988 35.5442 112.514 34.7668H112.529Z" fill="#B2D4AB"/>
<path d="M150.125 32.2437C150.389 32.5224 150.521 33.0064 150.521 33.7106C150.521 34.312 150.367 34.8254 150.052 35.2581C149.736 35.6835 149.318 35.8962 148.79 35.8962C147.712 35.8962 146.883 35.7642 146.304 35.5001C145.724 35.2361 145.196 34.752 144.72 34.0479C144.17 34.8767 143.414 35.4635 142.461 35.8009C141.507 36.1382 140.392 36.3069 139.109 36.3069C136.27 36.3069 134.114 35.4928 132.632 33.8572C131.151 32.2217 130.41 29.9553 130.41 27.0362C130.41 25.1293 130.799 23.435 131.576 21.9535C132.354 20.4719 133.439 19.3131 134.833 18.4843C136.226 17.6555 137.825 17.2448 139.637 17.2448C140.539 17.2448 141.382 17.4208 142.16 17.7729C142.937 18.1249 143.531 18.587 143.927 19.1664L144.001 18.675C144.052 18.3229 144.25 18.0296 144.602 17.7875C144.954 17.5528 145.504 17.4281 146.26 17.4281C147.162 17.4281 147.8 17.6262 148.159 18.0296C148.519 18.433 148.658 18.9464 148.555 19.5771C148.409 20.4353 148.255 21.8655 148.101 23.8751C148.027 24.8066 147.991 25.9947 147.991 27.4543V29.3392C147.991 30.0653 148.049 30.6228 148.181 31.0188C148.306 31.4075 148.585 31.6422 149.01 31.7156C149.487 31.7889 149.861 31.965 150.125 32.2437ZM142.761 24.3298C142.761 23.479 142.475 22.7823 141.911 22.2395C141.346 21.6968 140.627 21.4327 139.747 21.4327C138.617 21.4327 137.686 21.9535 136.96 22.995C136.234 24.0365 135.867 25.3713 135.867 27.0069C135.867 28.6425 136.197 29.8086 136.85 30.7328C137.503 31.6642 138.383 32.1263 139.49 32.1263C140.517 32.1263 141.309 31.8696 141.867 31.3562C142.417 30.8428 142.71 30.0947 142.732 29.1119C142.754 28.0851 142.769 26.4861 142.769 24.3298H142.761Z" fill="#B2D4AB"/>
<path d="M155.23 34.9208C154.753 34.4954 154.511 33.9526 154.511 33.2999L154.284 8.36284C154.284 7.68808 154.548 7.13066 155.076 6.70526C155.604 6.27987 156.271 6.06717 157.071 6.06717C157.87 6.06717 158.523 6.27253 159.014 6.69059C159.506 7.10866 159.748 7.6514 159.748 8.32617L159.938 33.2632C159.938 33.9673 159.667 34.5247 159.132 34.9428C158.596 35.3608 157.936 35.5662 157.151 35.5662C156.366 35.5662 155.706 35.3535 155.23 34.9281V34.9208Z" fill="#B2D4AB"/>
<path d="M166.136 33.5052C164.266 31.833 163.327 29.4933 163.327 26.4789C163.327 24.5206 163.738 22.775 164.566 21.2421C165.395 19.7092 166.569 18.521 168.087 17.6629C169.605 16.8121 171.395 16.3794 173.456 16.3794C175.517 16.3794 177.372 16.8194 178.957 17.6996C180.541 18.5797 181.766 19.8045 182.631 21.3741C183.497 22.9437 183.929 24.7333 183.929 26.7429C183.929 29.684 183.013 31.9577 181.179 33.5786C179.345 35.1995 176.859 36.0063 173.72 36.0063C170.581 36.0063 167.999 35.1701 166.129 33.4979L166.136 33.5052ZM177.211 30.5275C178.054 29.662 178.473 28.3711 178.473 26.6696C178.473 24.968 178.062 23.5524 177.248 22.3569C176.434 21.1614 175.231 20.5673 173.654 20.5673C172.172 20.5673 170.991 21.1101 170.111 22.1882C169.231 23.2664 168.791 24.7113 168.791 26.5229C168.791 28.3345 169.217 29.6033 170.075 30.4981C170.925 31.3929 172.121 31.833 173.654 31.833C175.187 31.833 176.375 31.4003 177.211 30.5348V30.5275Z" fill="#B2D4AB"/>
<path d="M234.316 19.4891C235.409 21.1834 235.952 23.5157 235.952 26.4788C235.952 27.9384 235.937 29.0165 235.915 29.7206L235.878 33.9013C235.878 34.5027 235.651 34.9868 235.204 35.3535C234.749 35.7202 234.148 35.8962 233.392 35.8962C232.637 35.8962 231.969 35.7055 231.449 35.3315C230.935 34.9574 230.678 34.4293 230.678 33.7472V26.4788C230.678 24.4692 230.51 23.039 230.172 22.1809C229.835 21.3301 229.285 20.8973 228.537 20.8973C227.987 20.8973 227.503 21.3447 227.085 22.2322C226.666 23.127 226.454 24.4325 226.424 26.1708V33.7399C226.424 35.1188 225.581 35.8156 223.901 35.8156C223.021 35.8156 222.346 35.6322 221.87 35.2655C221.393 34.8987 221.151 34.378 221.151 33.7032L221.188 26.1708C221.188 24.4105 221.004 23.127 220.645 22.3129C220.278 21.4988 219.721 21.088 218.973 21.088C218.496 21.088 218.012 21.4181 217.52 22.0855C217.029 22.753 216.648 23.7211 216.369 25.0046C216.193 25.7307 216.105 26.6769 216.105 27.8284L216.142 31.2535V34.0773C216.142 34.6274 215.892 35.0601 215.386 35.3755C214.88 35.6909 214.279 35.8449 213.582 35.8449C212.885 35.8449 212.276 35.6909 211.77 35.3755C211.264 35.0601 211.015 34.6127 211.015 34.0406V22.5843C211.015 22.0048 210.978 21.5794 210.905 21.3007C210.831 21.022 210.663 20.758 210.413 20.5086C210.391 20.4866 210.311 20.4059 210.186 20.2813C210.061 20.1566 209.966 20.0319 209.9 19.9072C209.841 19.7825 209.805 19.6432 209.805 19.4891C209.805 18.8364 210.047 18.301 210.538 17.8902C211.029 17.4722 211.572 17.2668 212.181 17.2668C212.68 17.2668 213.237 17.6409 213.839 18.3963C214.264 18.9464 214.477 19.5038 214.477 20.0539V20.2813C214.88 19.3498 215.474 18.5797 216.266 17.9636C217.058 17.3475 218.056 17.0394 219.259 17.0394C220.462 17.0394 221.408 17.2815 222.104 17.7729C222.794 18.2643 223.329 18.9464 223.703 19.8265C224.253 18.895 224.987 18.1836 225.904 17.6775C226.82 17.1788 227.869 16.9221 229.05 16.9221C231.463 16.9221 233.209 17.7729 234.309 19.4671L234.316 19.4891Z" fill="#B2D4AB"/>
<path d="M204.245 32.7058C202.727 32.2437 201.312 31.5323 199.999 30.5935C199.163 31.4149 198.004 31.833 196.515 31.833C195.026 31.833 193.787 31.3856 192.936 30.4981C192.085 29.6107 191.652 28.2831 191.652 26.5229C191.652 24.7626 192.092 23.2737 192.972 22.1882C193.405 21.6528 193.919 21.2568 194.498 20.9854C194.483 19.1811 194.637 17.6849 194.982 16.4601C193.479 16.6067 192.136 17.0101 190.963 17.6702C189.445 18.521 188.271 19.7165 187.442 21.2494C186.613 22.7823 186.203 24.5279 186.203 26.4862C186.203 29.5006 187.134 31.8403 189.012 33.5126C190.882 35.1848 193.412 36.0209 196.603 36.0209C199.793 36.0209 202.228 35.2142 204.062 33.5933C204.326 33.3586 204.568 33.1018 204.796 32.8378C204.612 32.8011 204.429 32.7718 204.253 32.7131L204.245 32.7058Z" fill="#B2D4AB"/>
<path d="M198.356 22.599C198.745 19.2838 199.449 16.284 200.952 15.0372C201.466 14.6045 202.162 14.4944 202.808 14.6705C206.636 15.712 208.477 21.6382 205.199 23.6258C204.817 23.8532 204.385 23.9852 203.945 24.0659C201.906 24.4473 201.106 24.3006 199.251 23.8752C198.671 23.7432 198.29 23.1931 198.356 22.599Z" fill="#DED7FA"/>
<path d="M200.798 26.1929C202.082 25.6794 203.578 25.3641 205.236 25.2027C206.138 25.1147 207.033 25.5548 207.495 26.3322C208.558 28.1291 208.543 30.4028 206.24 30.8795C205.676 30.9969 205.089 30.8795 204.583 30.6082C202.969 29.728 201.634 28.5179 200.542 27.029C200.329 26.7356 200.468 26.3249 200.798 26.1929Z" fill="#DED7FA"/>
<path d="M197.329 23.523C197.043 20.2005 197.124 17.1201 198.348 15.5945C198.766 15.0738 199.427 14.8171 200.094 14.8611C204.055 15.1031 207.047 20.5452 204.238 23.149C203.915 23.4497 203.512 23.6624 203.101 23.8311C201.179 24.6159 200.373 24.6305 198.466 24.5865C197.872 24.5718 197.38 24.1098 197.329 23.523Z" fill="#C2A0E8"/>
<path d="M200.446 26.5521C201.598 25.7967 202.999 25.1879 204.59 24.6892C205.456 24.4178 206.417 24.6672 207.033 25.342C208.434 26.8895 208.874 29.1192 206.717 30.0433C206.189 30.2707 205.588 30.278 205.038 30.1093C203.277 29.5666 201.723 28.6571 200.358 27.4176C200.087 27.1756 200.146 26.7428 200.446 26.5448V26.5521Z" fill="#C2A0E8"/>
</g>
<defs>
<clipPath id="clip0_624_1503">
<rect width="235.952" height="42.3741" fill="white"/>
</clipPath>
</defs>
</svg>
