<svg width="99" height="72" viewBox="0 0 99 72" fill="none" xmlns="http://www.w3.org/2000/svg">
<g clip-path="url(#clip0_678_63699)">
<path d="M9.6422 50.1494C9.59406 50.1494 9.54592 50.1563 9.51154 50.17C9.37399 50.2044 9.26395 50.287 9.20893 50.397C8.03979 52.7972 7.22826 55.3831 6.50614 57.8314L6.1554 57.8176H5.37826C3.84462 57.8176 2.55856 57.8795 1.29313 58.2096C1.10744 58.2578 0.928634 58.3128 0.742946 58.3747C0.626031 58.416 0.515994 58.5191 0.460976 58.6429C0.392202 58.8011 0.412834 58.973 0.515994 59.1381C0.997407 59.9083 1.7264 60.4723 2.44165 60.9537C3.02622 61.3457 3.63142 61.7033 4.25726 62.0609C4.51172 62.2122 4.77306 62.3635 5.02752 62.5148L4.9725 62.4529L5.16507 62.5974L5.26135 62.6593L5.16507 64.5987V64.7225L5.13068 65.2383V65.4515C5.0344 67.2052 4.93811 69.0208 4.95875 70.8089C4.95875 70.9877 5.04815 71.1459 5.20633 71.2422C5.28198 71.2834 5.38514 71.3109 5.47455 71.3109C5.52269 71.3109 5.55707 71.3109 5.59146 71.2972C5.64648 71.2834 5.68087 71.2628 5.70837 71.2422C6.25168 70.8364 6.7331 70.3825 7.19388 69.8461C7.62715 69.3303 8.03979 68.7663 8.48681 68.0717C8.99574 67.2808 9.44964 66.4762 9.98607 65.5065L10.0548 65.3827C10.2268 65.6784 10.4262 65.981 10.6257 66.2836C11.6435 67.8173 12.7026 69.4059 14.0712 70.7057C14.1744 70.802 14.2982 70.8502 14.4288 70.8502C14.4701 70.8502 14.5045 70.8502 14.5526 70.8364C14.7245 70.7883 14.8621 70.6576 14.9102 70.4925C15.2266 69.3028 15.3573 68.003 15.3366 66.2767C15.3229 65.307 15.2541 64.3305 15.1922 63.3814L15.1647 62.9687L15.7286 62.5767C16.3614 62.1366 17.0285 61.6552 17.6543 61.1669C18.7409 60.321 19.5112 59.5507 20.082 58.7461C20.192 58.5879 20.2195 58.416 20.1576 58.2647C20.0957 58.0996 19.9582 57.9896 19.7725 57.9483C18.4521 57.6457 17.1316 57.5701 16.1275 57.5288C15.3779 57.5013 14.6214 57.4944 13.8718 57.4875C13.4522 57.4875 13.0258 57.4806 12.6063 57.4738L12.3381 56.4353L12.3106 56.3184C12.0837 55.4793 11.8842 54.7297 11.6435 53.9801C11.1621 52.4533 10.6738 51.3461 10.0686 50.397C9.97232 50.2388 9.81414 50.1494 9.6422 50.1494Z" fill="#EFA904"/>
<path d="M57.0269 -0.000161366C56.9788 -0.000161366 56.9306 0.0135933 56.8825 0.0342253C56.2979 0.316196 55.734 0.71508 55.0462 1.31341C54.7299 1.59538 54.4135 1.8911 54.1109 2.17307L54.0009 2.27623L53.7464 2.51694L53.5263 2.73014L53.2306 2.54445L52.9211 2.35876L52.8111 2.28999L52.6873 2.22121C52.3985 2.04928 52.1027 1.87735 51.8139 1.71229C51.3118 1.43032 50.6447 1.0727 49.9089 0.831995C49.8676 0.81824 49.8263 0.811363 49.792 0.811363C49.7301 0.811363 49.6682 0.831995 49.6131 0.873259C49.5375 0.935155 49.4962 1.03144 49.5031 1.1346C49.5444 1.69854 49.6957 2.30374 49.9708 3.03962C50.1289 3.45226 50.3009 3.85802 50.4728 4.2569L50.6516 4.66267L50.5347 4.81397L50.4522 4.93776C50.1633 5.3504 49.8607 5.77679 49.5925 6.20319C49.0698 7.03534 48.7466 7.70244 48.5472 8.3833C48.5197 8.47958 48.5472 8.58962 48.6159 8.66527C48.671 8.72029 48.7466 8.75467 48.8291 8.75467C49.9639 8.51397 50.9405 8.05319 51.8895 7.61304L52.034 7.54426C52.1784 7.48237 52.3159 7.4136 52.4466 7.34482L52.4191 7.4136V7.51676C52.3985 8.01192 52.3778 8.56899 52.3916 9.1123C52.4053 9.57995 52.4397 9.97884 52.4947 10.3571C52.5635 10.7697 52.6667 11.1342 52.8111 11.485C52.818 11.5125 52.8317 11.5331 52.8524 11.5537C52.9074 11.6088 52.9899 11.6432 53.0656 11.6432C53.1687 11.6432 53.265 11.5881 53.32 11.4987C53.9184 10.5428 54.4823 9.49743 54.8881 8.73404C55.1219 8.30077 55.3557 7.8675 55.5964 7.43423H55.7408L55.9953 7.44798H56.2498L56.463 7.45486C56.6143 7.45486 56.7656 7.45486 56.91 7.45486C57.0957 7.45486 57.2814 7.45486 57.4602 7.4411C57.9553 7.4136 58.478 7.35858 58.9388 7.12475C59.0351 7.07661 59.097 6.99408 59.1176 6.89092C59.1314 6.81527 59.1039 6.73274 59.0557 6.67084C58.9801 6.58832 58.9113 6.50579 58.8356 6.43014C58.1685 5.74241 57.2882 5.21973 56.5799 4.80021L56.4011 4.69705C56.7587 3.36973 57.1507 1.81545 57.2951 0.281809C57.302 0.213036 57.2745 0.137385 57.2126 0.0754892C57.1988 0.0617346 57.1782 0.0411026 57.1576 0.0273479C57.1163 -0.000161366 57.0682 -0.013916 57.0131 -0.013916" fill="#FFE6A1"/>
<path d="M82.3494 0.192627C82.205 0.192627 82.0605 0.254523 81.9711 0.350805C80.1005 2.54467 78.5668 5.01363 77.1501 7.36568L76.7925 7.25564C75.1144 6.80861 73.3813 6.34783 71.6276 6.34783C71.4213 6.34783 71.2219 6.35471 71.0155 6.36847C70.8849 6.37534 70.7405 6.45787 70.651 6.56791C70.541 6.71921 70.5135 6.9049 70.5754 7.09746C70.8574 8.01902 71.4694 8.79616 72.0884 9.50453C72.5767 10.0547 73.1063 10.5843 73.6221 11.0932L73.6771 11.1482C73.904 11.3752 74.131 11.6021 74.3579 11.8291L74.3167 11.7465L74.4748 11.9529L74.5642 12.0423C74.296 12.9088 74.0141 13.796 73.739 14.6832C73.175 16.4575 72.5423 18.4657 72.0609 20.4326C72.0128 20.6183 72.0609 20.8177 72.1984 20.9553C72.2947 21.0516 72.446 21.1203 72.5836 21.1203C72.6317 21.1203 72.6867 21.1066 72.7211 21.0928C73.3813 20.8315 74.0072 20.4876 74.6399 20.0406C75.2107 19.6417 75.7884 19.1672 76.4693 18.5482C77.2326 17.8467 77.9548 17.0902 78.6631 16.3475L78.8351 16.1687C78.9176 16.4644 79.0208 16.7739 79.1239 17.0765L79.1858 17.2621C79.8529 19.174 80.52 21.0928 81.586 22.7915C81.6892 22.9635 81.8611 23.0597 82.0468 23.0597C82.2393 23.0597 82.4182 22.9566 82.5144 22.7915C83.1678 21.6361 83.6492 20.3226 84.0893 18.5276C84.3507 17.4616 84.5501 16.3819 84.7289 15.4259L84.8046 15.0408L85.4923 14.7863C86.3451 14.4631 87.1154 14.1674 87.8787 13.8372C89.2405 13.2458 90.2514 12.6543 91.0629 11.9804C91.2211 11.8428 91.2968 11.6709 91.2693 11.499C91.2486 11.3133 91.1386 11.162 90.946 11.0657C89.6531 10.3917 88.2983 9.95155 87.2598 9.64895C86.6202 9.45638 85.9669 9.27757 85.3204 9.10564L85.1003 9.04375L84.9215 8.9956C84.4813 8.87869 84.0481 8.76178 83.6079 8.63798C83.6217 8.3904 83.6148 8.13594 83.6079 7.8746V7.48259C83.601 6.55415 83.5873 5.63947 83.546 4.74542C83.4566 3.03296 83.2503 1.75378 82.8721 0.584635C82.8102 0.398947 82.6726 0.2614 82.4938 0.213259C82.4457 0.199504 82.3975 0.192627 82.3563 0.192627" fill="#EFA904"/>
<path d="M85.2314 30.6936H85.1695C84.9219 30.6936 84.695 30.8105 84.5299 31.0237C83.4502 32.4404 82.5355 34.1185 81.5795 36.4499C81.0637 37.7222 80.5892 39.0427 80.1697 40.2049L79.9634 40.7689L79.5851 41.828L78.5329 41.7455L77.6113 41.6767C76.4215 41.5873 75.218 41.4979 74.0557 41.4429C73.5468 41.4222 72.7697 41.3878 71.9169 41.3878C70.5758 41.3878 69.386 41.4635 68.2719 41.6217C67.9624 41.6698 67.7423 41.8211 67.6254 42.0618C67.5085 42.3025 67.5291 42.5776 67.6736 42.8252C68.4645 44.1594 69.5786 45.4661 71.1741 46.9447C72.1507 47.8525 73.2304 48.7535 74.0145 49.4137L74.8535 50.1152L74.7641 50.6654L74.7435 50.8167C74.5234 52.2747 74.2964 53.7808 74.152 55.2663C73.8907 57.976 73.9251 60.0392 74.262 61.9442C74.3171 62.2055 74.5165 62.4393 74.771 62.5287C74.8466 62.5563 74.936 62.57 75.0254 62.57C75.2042 62.57 75.3899 62.5012 75.5344 62.3843C77.8451 60.5274 79.7089 58.1823 81.5176 55.9128L81.6827 55.6996C81.9853 55.3144 82.2948 54.9293 82.5905 54.5442L82.6593 54.7436C83.2163 55.9815 83.9109 57.5289 84.6812 58.9732C85.3139 60.1629 85.8847 61.0983 86.4831 61.9304C87.1364 62.8451 87.8448 63.6291 88.6288 64.3168C88.6838 64.3581 88.7388 64.3925 88.8076 64.42C88.8832 64.4475 88.9727 64.4613 89.0621 64.4613C89.1927 64.4613 89.3165 64.4338 89.4197 64.3856C89.6673 64.2618 89.8254 64.0211 89.8529 63.7392C90.128 60.8438 90.2243 57.804 90.3137 55.1219V54.9637C90.3619 53.602 90.41 52.2334 90.465 50.8854L90.6163 50.8098L90.8845 50.6791L90.9533 50.6378C91.2766 50.4865 91.6273 50.3215 91.9712 50.1633L92.1156 50.0945C92.9409 49.7025 94.0756 49.1661 95.1141 48.5815C96.3107 47.9007 97.528 47.1167 98.3739 45.9819C98.5596 45.7412 98.6078 45.473 98.5253 45.2185C98.4634 45.0191 98.3052 44.8403 98.1264 44.7715C97.8444 44.6546 97.5693 44.5445 97.2805 44.4483C94.839 43.5886 92.2256 43.3891 89.6948 43.1966L89.1171 43.1622C88.3056 39.2352 87.3771 35.0676 85.8572 31.1338C85.7884 30.9549 85.6234 30.8105 85.4102 30.7349C85.3552 30.7142 85.2933 30.7005 85.2176 30.6936H85.2314Z" fill="#FFE6A1"/>
<path d="M34.4556 8.36963C34.4556 8.36963 34.4074 8.36963 34.3799 8.36963C34.2011 8.39714 34.0567 8.51405 33.9742 8.69286C32.3374 12.2072 31.4364 16.0654 30.7762 19.3802C30.3705 21.4022 30.0266 23.4722 29.6896 25.4735C29.5314 26.4089 29.3732 27.3442 29.2151 28.2795C27.647 28.5408 26.0377 28.8503 24.3115 29.2217C23.3143 29.4349 22.3171 29.6618 21.3268 29.8957C20.7766 30.0263 20.1232 30.1776 19.4561 30.2945L18.8991 30.3977C17.7781 30.604 16.6158 30.8172 15.4948 31.1267C14.8277 31.3055 14.2362 31.5187 13.6861 31.7732C13.1084 32.0414 12.6751 32.3371 12.3725 32.6879C12.2693 32.8116 12.2212 32.9286 12.2212 33.0661C12.2212 33.2037 12.2831 33.3412 12.3725 33.4306C15.0615 35.9477 18.342 37.6533 20.9073 38.8568C23.1768 39.9297 25.5563 40.8719 27.8465 41.7797L28.321 41.9722C28.4723 44.6269 28.6924 48.1206 29.0638 51.6143C29.5589 56.3046 30.1985 60.0665 31.0788 63.4708C31.1751 63.849 31.2783 64.2204 31.3814 64.5918L31.4021 64.6812C31.4571 64.86 31.5946 64.9975 31.7666 65.0457C31.8078 65.0594 31.856 65.0663 31.9041 65.0663C32.0485 65.0663 32.1861 65.0113 32.2755 64.915C34.7582 62.0815 36.6976 58.7804 38.4307 55.6375C39.0978 54.4202 39.7442 53.196 40.3907 51.9719C41.2848 50.28 42.2063 48.5401 43.1692 46.8483C45.8101 48.5195 48.389 50.3901 50.8786 52.2057C53.8978 54.3996 57.0132 56.676 60.2937 58.5947C60.3625 58.6498 60.445 58.6841 60.5344 58.6979C60.5619 58.6979 60.5825 58.6979 60.6101 58.6979C60.7201 58.6979 60.837 58.6635 60.9264 58.5947C61.0021 58.5328 61.0571 58.4641 61.0983 58.3815C61.1534 58.2509 61.1396 58.134 61.0983 57.9895C60.0186 53.6912 58.4918 49.4548 57.0132 45.3559C55.9266 42.3436 54.8056 39.2213 53.8634 36.099C54.3448 35.652 54.8331 35.205 55.3214 34.7579L55.6653 34.4416C56.8138 33.3962 57.9967 32.3096 59.1314 31.2092C60.5138 29.8613 61.6004 28.6852 62.5495 27.5161C63.643 26.1681 64.4751 24.8615 65.0941 23.5204C65.1491 23.3897 65.1216 23.2178 65.0734 23.1146C64.9909 22.9496 64.819 22.8326 64.647 22.8258C63.0928 22.7639 61.5591 22.7295 60.0874 22.7295C58.1686 22.7295 56.2911 22.7845 54.4961 22.8945C51.3394 23.0802 48.6022 23.431 46.1333 23.9605C45.3218 22.7501 44.5171 21.526 43.7125 20.3018C43.0591 19.3046 42.4127 18.3074 41.7524 17.317C39.8887 14.5317 37.6123 11.3131 34.8751 8.56219C34.7444 8.43152 34.6138 8.36963 34.4693 8.36963" fill="#FDE443"/>
<path d="M34.9785 11.7808C34.8272 11.8702 34.7653 12.0765 34.8615 12.2278C35.8037 13.7271 36.6772 15.2607 37.4956 16.8288C37.7019 17.2208 37.9151 17.6128 38.1145 18.0117C38.314 18.4106 38.5065 18.8094 38.6991 19.2083C39.0842 19.9992 39.4556 20.8039 39.9164 21.5604C40.1502 21.9455 40.6523 22.0899 41.0443 21.8561C41.23 21.7461 41.3675 21.5741 41.4225 21.3678C41.4844 21.1408 41.4363 20.9414 41.34 20.7282C40.9617 19.9304 40.4597 19.1946 39.9645 18.4724C39.7101 18.1079 39.4556 17.7434 39.1943 17.379C38.9398 17.0213 38.6922 16.65 38.4309 16.2855C37.4062 14.8412 36.3746 13.397 35.4255 11.8977C35.3636 11.7946 35.2536 11.7327 35.1366 11.7327C35.0816 11.7327 35.0266 11.7464 34.9785 11.7739" fill="#FFE562"/>
<path d="M41.5122 23.7955C41.5122 24.2219 41.8698 24.5864 42.2962 24.5864C42.7226 24.5864 43.0802 24.2288 43.0802 23.7955C43.0802 23.3622 42.7226 23.0115 42.2962 23.0115C41.8698 23.0115 41.5122 23.3691 41.5122 23.7955Z" fill="#FFE562"/>
<path d="M58.0449 24.4968C57.1921 24.5862 56.3393 24.7031 55.4865 24.8338C54.5924 24.9714 53.6915 25.1089 52.7975 25.2465C51.0506 25.5215 49.3175 25.8654 47.5707 26.1405C47.385 26.168 47.2337 26.3124 47.2543 26.505C47.2612 26.6769 47.4331 26.8489 47.6188 26.8282C48.4647 26.6976 49.3175 26.5875 50.1703 26.4844C51.0644 26.3743 51.9653 26.2849 52.8662 26.1887C53.719 26.0924 54.5718 26.0098 55.4315 25.9411C56.3324 25.8654 57.2333 25.8104 58.1343 25.7416C58.4713 25.7141 58.7395 25.4184 58.712 25.0745C58.6913 24.765 58.4162 24.4968 58.0999 24.4968C58.0792 24.4968 58.0655 24.4968 58.0449 24.4968Z" fill="#FFE562"/>
<path d="M60.0052 24.889C60.0258 25.2054 60.2941 25.4048 60.5898 25.4048C60.8855 25.4048 61.1262 25.1022 61.1056 24.8202C61.085 24.5039 60.8167 24.3044 60.5141 24.3044C60.2115 24.3044 59.9777 24.607 59.9983 24.889" fill="#FFE562"/>
<path d="M52.1032 38.004C51.9657 38.0728 51.9382 38.2172 51.9863 38.3548C52.0482 38.5267 52.1101 38.6918 52.172 38.8637C52.1651 38.8431 52.1583 38.8224 52.1445 38.8018C52.7291 40.4524 53.2311 42.1373 53.7194 43.8154C53.8432 44.2486 53.9601 44.6819 54.077 45.1152C54.2008 45.5485 54.3109 45.9817 54.4347 46.415C54.6891 47.2884 54.9848 48.1618 55.3287 49.0078C55.3837 49.1109 55.4525 49.1934 55.5488 49.2553C55.6932 49.3516 55.8789 49.386 56.0508 49.3516C56.2228 49.3172 56.3672 49.2141 56.4635 49.0696C56.5598 48.9321 56.6079 48.7327 56.5598 48.5676C56.3122 47.6873 56.0096 46.8208 55.6657 45.9748C55.315 45.1014 54.9229 44.2418 54.5584 43.3752C53.8226 41.6353 53.1005 39.8884 52.4471 38.1209C52.4127 38.0247 52.3096 37.9834 52.2133 37.9834C52.172 37.9834 52.1308 37.9903 52.0964 38.0109" fill="#FFE562"/>
<path d="M56.7312 52.0612C56.7175 52.2813 56.8963 52.5083 57.1301 52.5083C57.3639 52.5083 57.5634 52.3501 57.5771 52.1094C57.5909 51.8893 57.4121 51.6624 57.1782 51.6624C56.9444 51.6624 56.745 51.8205 56.7312 52.0612Z" fill="#FFE562"/>
<path d="M40.2603 46.4217C40.0058 47.0407 39.7239 47.6528 39.4281 48.2511C39.4281 48.2511 39.4281 48.2442 39.4281 48.2373C39.1187 48.8632 38.7817 49.4753 38.4447 50.0805C38.0871 50.7338 37.7363 51.394 37.3718 52.0405C36.6428 53.3403 35.845 54.6057 35.2261 55.9675C35.1917 56.0706 35.1848 56.1807 35.2055 56.2907C35.2398 56.442 35.3292 56.5795 35.4599 56.6621C35.7144 56.834 36.1339 56.779 36.2921 56.497C36.7253 55.7336 37.1036 54.9359 37.4818 54.145C37.8807 53.3197 38.259 52.4875 38.6579 51.6623C39.4556 50.0117 40.1571 48.3199 40.8517 46.6281C40.9136 46.463 40.8105 46.2773 40.6523 46.2223C40.6179 46.2085 40.5835 46.2017 40.5491 46.2017C40.4185 46.2017 40.3016 46.2911 40.2465 46.4149" fill="#FFE562"/>
<path d="M33.5274 58.0651C33.5067 58.4365 33.8093 58.8216 34.2013 58.8216C34.5933 58.8216 34.9372 58.5534 34.9647 58.1476C34.9854 57.7762 34.6828 57.3911 34.2907 57.3911C33.8987 57.3911 33.5549 57.6593 33.5342 58.0651" fill="#FFE562"/>
</g>
<defs>
<clipPath id="clip0_678_63699">
<rect width="98.1463" height="71.2972" fill="white" transform="translate(0.426758)"/>
</clipPath>
</defs>
</svg>
