<svg width="99" height="72" viewBox="0 0 99 72" fill="none" xmlns="http://www.w3.org/2000/svg">
<g clip-path="url(#clip0_678_63701)">
<path d="M89.3578 50.1494C89.4059 50.1494 89.4541 50.1563 89.4885 50.17C89.626 50.2044 89.736 50.287 89.7911 50.397C90.9602 52.7972 91.7717 55.3831 92.4939 57.8314L92.8446 57.8176H93.6217C95.1554 57.8176 96.4414 57.8795 97.7069 58.2096C97.8926 58.2578 98.0714 58.3128 98.2571 58.3747C98.374 58.416 98.484 58.5191 98.539 58.6429C98.6078 58.8011 98.5872 58.973 98.484 59.1381C98.0026 59.9083 97.2736 60.4723 96.5584 60.9537C95.9738 61.3457 95.3686 61.7033 94.7427 62.0609C94.4883 62.2122 94.2269 62.3635 93.9725 62.5148L94.0275 62.4529L93.8349 62.5974L93.7387 62.6593L93.8349 64.5987V64.7225L93.8693 65.2383V65.4515C93.9656 67.2052 94.0619 69.0208 94.0413 70.8089C94.0413 70.9877 93.9518 71.1459 93.7937 71.2422C93.718 71.2834 93.6149 71.3109 93.5255 71.3109C93.4773 71.3109 93.4429 71.3109 93.4085 71.2972C93.3535 71.2834 93.3191 71.2628 93.2916 71.2422C92.7483 70.8364 92.2669 70.3825 91.8061 69.8461C91.3729 69.3303 90.9602 68.7663 90.5132 68.0717C90.0043 67.2808 89.5504 66.4762 89.0139 65.5065L88.9452 65.3827C88.7732 65.6784 88.5738 65.981 88.3743 66.2836C87.3565 67.8173 86.2974 69.4059 84.9288 70.7057C84.8256 70.802 84.7018 70.8502 84.5712 70.8502C84.5299 70.8502 84.4955 70.8502 84.4474 70.8364C84.2755 70.7883 84.1379 70.6576 84.0898 70.4925C83.7734 69.3028 83.6427 68.003 83.6634 66.2767C83.6771 65.307 83.7459 64.3305 83.8078 63.3814L83.8353 62.9687L83.2714 62.5767C82.6386 62.1366 81.9715 61.6552 81.3457 61.1669C80.2591 60.321 79.4888 59.5507 78.918 58.7461C78.808 58.5879 78.7805 58.416 78.8424 58.2647C78.9043 58.0996 79.0418 57.9896 79.2275 57.9483C80.5479 57.6457 81.8684 57.5701 82.8725 57.5288C83.6221 57.5013 84.3786 57.4944 85.1282 57.4875C85.5478 57.4875 85.9742 57.4806 86.3937 57.4738L86.6619 56.4353L86.6894 56.3184C86.9163 55.4793 87.1158 54.7297 87.3565 53.9801C87.8379 52.4533 88.3262 51.3461 88.9314 50.397C89.0277 50.2388 89.1859 50.1494 89.3578 50.1494Z" fill="#EFA904"/>
<path d="M41.9731 -0.000161366C42.0212 -0.000161366 42.0694 0.0135933 42.1175 0.0342253C42.7021 0.316196 43.266 0.71508 43.9538 1.31341C44.2701 1.59538 44.5865 1.8911 44.8891 2.17307L44.9991 2.27623L45.2536 2.51694L45.4737 2.73014L45.7694 2.54445L46.0789 2.35876L46.1889 2.28999L46.3127 2.22121C46.6015 2.04928 46.8973 1.87735 47.1861 1.71229C47.6882 1.43032 48.3553 1.0727 49.0911 0.831995C49.1324 0.81824 49.1737 0.811363 49.208 0.811363C49.2699 0.811363 49.3318 0.831995 49.3869 0.873259C49.4625 0.935155 49.5038 1.03144 49.4969 1.1346C49.4556 1.69854 49.3043 2.30374 49.0292 3.03962C48.8711 3.45226 48.6991 3.85802 48.5272 4.2569L48.3484 4.66267L48.4653 4.81397L48.5478 4.93776C48.8367 5.3504 49.1393 5.77679 49.4075 6.20319C49.9302 7.03534 50.2534 7.70244 50.4528 8.3833C50.4803 8.47958 50.4528 8.58962 50.3841 8.66527C50.329 8.72029 50.2534 8.75467 50.1709 8.75467C49.0361 8.51397 48.0595 8.05319 47.1105 7.61304L46.966 7.54426C46.8216 7.48237 46.6841 7.4136 46.5534 7.34482L46.5809 7.4136V7.51676C46.6015 8.01192 46.6222 8.56899 46.6084 9.1123C46.5947 9.57995 46.5603 9.97884 46.5053 10.3571C46.4365 10.7697 46.3333 11.1342 46.1889 11.485C46.182 11.5125 46.1683 11.5331 46.1476 11.5537C46.0926 11.6088 46.0101 11.6432 45.9344 11.6432C45.8313 11.6432 45.735 11.5881 45.68 11.4987C45.0816 10.5428 44.5177 9.49743 44.1119 8.73404C43.8781 8.30077 43.6443 7.8675 43.4036 7.43423H43.2592L43.0047 7.44798H42.7502L42.537 7.45486C42.3857 7.45486 42.2344 7.45486 42.09 7.45486C41.9043 7.45486 41.7186 7.45486 41.5398 7.4411C41.0447 7.4136 40.522 7.35858 40.0612 7.12475C39.9649 7.07661 39.903 6.99408 39.8824 6.89092C39.8686 6.81527 39.8961 6.73274 39.9443 6.67084C40.0199 6.58832 40.0887 6.50579 40.1644 6.43014C40.8315 5.74241 41.7118 5.21973 42.4201 4.80021L42.5989 4.69705C42.2413 3.36973 41.8493 1.81545 41.7049 0.281809C41.698 0.213036 41.7255 0.137385 41.7874 0.0754892C41.8012 0.0617346 41.8218 0.0411026 41.8424 0.0273479C41.8837 -0.000161366 41.9318 -0.013916 41.9869 -0.013916" fill="#FFE6A1"/>
<path d="M16.6506 0.192627C16.795 0.192627 16.9395 0.254523 17.0289 0.350805C18.8995 2.54467 20.4332 5.01363 21.8499 7.36568L22.2075 7.25564C23.8856 6.80861 25.6187 6.34783 27.3724 6.34783C27.5787 6.34783 27.7781 6.35471 27.9845 6.36847C28.1151 6.37534 28.2595 6.45787 28.349 6.56791C28.459 6.71921 28.4865 6.9049 28.4246 7.09746C28.1426 8.01902 27.5306 8.79616 26.9116 9.50453C26.4233 10.0547 25.8937 10.5843 25.3779 11.0932L25.3229 11.1482C25.096 11.3752 24.869 11.6021 24.6421 11.8291L24.6833 11.7465L24.5252 11.9529L24.4358 12.0423C24.704 12.9088 24.9859 13.796 25.261 14.6832C25.825 16.4575 26.4577 18.4657 26.9391 20.4326C26.9872 20.6183 26.9391 20.8177 26.8016 20.9553C26.7053 21.0516 26.554 21.1203 26.4164 21.1203C26.3683 21.1203 26.3133 21.1066 26.2789 21.0928C25.6187 20.8315 24.9928 20.4876 24.3601 20.0406C23.7893 19.6417 23.2116 19.1672 22.5307 18.5482C21.7674 17.8467 21.0452 17.0902 20.3369 16.3475L20.1649 16.1687C20.0824 16.4644 19.9792 16.7739 19.8761 17.0765L19.8142 17.2621C19.1471 19.174 18.48 21.0928 17.414 22.7915C17.3108 22.9635 17.1389 23.0597 16.9532 23.0597C16.7607 23.0597 16.5818 22.9566 16.4856 22.7915C15.8322 21.6361 15.3508 20.3226 14.9107 18.5276C14.6493 17.4616 14.4499 16.3819 14.2711 15.4259L14.1954 15.0408L13.5077 14.7863C12.6549 14.4631 11.8846 14.1674 11.1213 13.8372C9.75954 13.2458 8.74858 12.6543 7.93706 11.9804C7.77888 11.8428 7.70322 11.6709 7.73073 11.499C7.75137 11.3133 7.8614 11.162 8.05397 11.0657C9.3469 10.3917 10.7017 9.95155 11.7402 9.64895C12.3798 9.45638 13.0331 9.27757 13.6796 9.10564L13.8997 9.04375L14.0785 8.9956C14.5187 8.87869 14.9519 8.76178 15.3921 8.63798C15.3783 8.3904 15.3852 8.13594 15.3921 7.8746V7.48259C15.399 6.55415 15.4127 5.63947 15.454 4.74542C15.5434 3.03296 15.7497 1.75378 16.1279 0.584635C16.1898 0.398947 16.3274 0.2614 16.5062 0.213259C16.5543 0.199504 16.6025 0.192627 16.6437 0.192627" fill="#EFA904"/>
<path d="M13.7686 30.6936H13.8305C14.0781 30.6936 14.305 30.8105 14.4701 31.0237C15.5498 32.4404 16.4645 34.1185 17.4205 36.4499C17.9363 37.7222 18.4108 39.0427 18.8303 40.2049L19.0366 40.7689L19.4149 41.828L20.4671 41.7455L21.3887 41.6767C22.5785 41.5873 23.782 41.4979 24.9443 41.4429C25.4532 41.4222 26.2303 41.3878 27.0831 41.3878C28.4242 41.3878 29.614 41.4635 30.7281 41.6217C31.0376 41.6698 31.2577 41.8211 31.3746 42.0618C31.4915 42.3025 31.4709 42.5776 31.3264 42.8252C30.5355 44.1594 29.4214 45.4661 27.8259 46.9447C26.8493 47.8525 25.7696 48.7535 24.9855 49.4137L24.1465 50.1152L24.2359 50.6654L24.2565 50.8167C24.4766 52.2747 24.7036 53.7808 24.848 55.2663C25.1093 57.976 25.0749 60.0392 24.738 61.9442C24.6829 62.2055 24.4835 62.4393 24.229 62.5287C24.1534 62.5563 24.064 62.57 23.9746 62.57C23.7958 62.57 23.6101 62.5012 23.4656 62.3843C21.1549 60.5274 19.2911 58.1823 17.4824 55.9128L17.3173 55.6996C17.0147 55.3144 16.7052 54.9293 16.4095 54.5442L16.3407 54.7436C15.7837 55.9815 15.0891 57.5289 14.3188 58.9732C13.6861 60.1629 13.1153 61.0983 12.5169 61.9304C11.8636 62.8451 11.1552 63.6291 10.3712 64.3168C10.3162 64.3581 10.2612 64.3925 10.1924 64.42C10.1168 64.4475 10.0273 64.4613 9.93794 64.4613C9.80727 64.4613 9.68349 64.4338 9.58033 64.3856C9.33275 64.2618 9.17456 64.0211 9.14706 63.7392C8.87196 60.8438 8.77568 57.804 8.68628 55.1219V54.9637C8.63814 53.602 8.58999 52.2334 8.53498 50.8854L8.38367 50.8098L8.11546 50.6791L8.04668 50.6378C7.72345 50.4865 7.37271 50.3215 7.02884 50.1633L6.88441 50.0945C6.05913 49.7025 4.92438 49.1661 3.88591 48.5815C2.68925 47.9007 1.47196 47.1167 0.626051 45.9819C0.440363 45.7412 0.39222 45.473 0.474749 45.2185C0.536644 45.0191 0.694824 44.8403 0.873634 44.7715C1.15561 44.6546 1.43069 44.5445 1.71954 44.4483C4.16099 43.5886 6.77438 43.3891 9.30523 43.1966L9.88293 43.1622C10.6944 39.2352 11.6229 35.0676 13.1428 31.1338C13.2116 30.9549 13.3766 30.8105 13.5898 30.7349C13.6448 30.7142 13.7067 30.7005 13.7824 30.6936H13.7686Z" fill="#FFE6A1"/>
<path d="M64.5444 8.36963C64.5444 8.36963 64.5926 8.36963 64.6201 8.36963C64.7989 8.39714 64.9433 8.51405 65.0258 8.69286C66.6626 12.2072 67.5636 16.0654 68.2238 19.3802C68.6295 21.4022 68.9734 23.4722 69.3104 25.4735C69.4686 26.4089 69.6268 27.3442 69.7849 28.2795C71.353 28.5408 72.9623 28.8503 74.6885 29.2217C75.6857 29.4349 76.6829 29.6618 77.6732 29.8957C78.2234 30.0263 78.8768 30.1776 79.5439 30.2945L80.1009 30.3977C81.2219 30.604 82.3842 30.8172 83.5052 31.1267C84.1723 31.3055 84.7638 31.5187 85.3139 31.7732C85.8916 32.0414 86.3249 32.3371 86.6275 32.6879C86.7307 32.8116 86.7788 32.9286 86.7788 33.0661C86.7788 33.2037 86.7169 33.3412 86.6275 33.4306C83.9385 35.9477 80.658 37.6533 78.0927 38.8568C75.8232 39.9297 73.4437 40.8719 71.1535 41.7797L70.679 41.9722C70.5277 44.6269 70.3076 48.1206 69.9362 51.6143C69.4411 56.3046 68.8015 60.0665 67.9212 63.4708C67.8249 63.849 67.7217 64.2204 67.6186 64.5918L67.5979 64.6812C67.5429 64.86 67.4054 64.9975 67.2334 65.0457C67.1922 65.0594 67.144 65.0663 67.0959 65.0663C66.9515 65.0663 66.8139 65.0113 66.7245 64.915C64.2418 62.0815 62.3024 58.7804 60.5693 55.6375C59.9022 54.4202 59.2558 53.196 58.6093 51.9719C57.7152 50.28 56.7937 48.5401 55.8308 46.8483C53.1899 48.5195 50.611 50.3901 48.1214 52.2057C45.1022 54.3996 41.9868 56.676 38.7063 58.5947C38.6375 58.6498 38.555 58.6841 38.4656 58.6979C38.4381 58.6979 38.4175 58.6979 38.3899 58.6979C38.2799 58.6979 38.163 58.6635 38.0736 58.5947C37.9979 58.5328 37.9429 58.4641 37.9017 58.3815C37.8466 58.2509 37.8604 58.134 37.9017 57.9895C38.9814 53.6912 40.5082 49.4548 41.9868 45.3559C43.0734 42.3436 44.1944 39.2213 45.1366 36.099C44.6552 35.652 44.1669 35.205 43.6786 34.7579L43.3347 34.4416C42.1862 33.3962 41.0033 32.3096 39.8686 31.2092C38.4862 29.8613 37.3996 28.6852 36.4505 27.5161C35.357 26.1681 34.5249 24.8615 33.9059 23.5204C33.8509 23.3897 33.8784 23.2178 33.9266 23.1146C34.0091 22.9496 34.181 22.8326 34.353 22.8258C35.9072 22.7639 37.4409 22.7295 38.9126 22.7295C40.8314 22.7295 42.7089 22.7845 44.5039 22.8945C47.6606 23.0802 50.3978 23.431 52.8667 23.9605C53.6782 22.7501 54.4829 21.526 55.2875 20.3018C55.9409 19.3046 56.5873 18.3074 57.2476 17.317C59.1113 14.5317 61.3877 11.3131 64.1249 8.56219C64.2556 8.43152 64.3862 8.36963 64.5307 8.36963" fill="#FDE443"/>
<path d="M64.0215 11.7808C64.1728 11.8702 64.2347 12.0765 64.1385 12.2278C63.1963 13.7271 62.3228 15.2607 61.5044 16.8288C61.2981 17.2208 61.0849 17.6128 60.8855 18.0117C60.686 18.4106 60.4935 18.8094 60.3009 19.2083C59.9158 19.9992 59.5444 20.8039 59.0836 21.5604C58.8498 21.9455 58.3477 22.0899 57.9557 21.8561C57.77 21.7461 57.6325 21.5741 57.5775 21.3678C57.5156 21.1408 57.5637 20.9414 57.66 20.7282C58.0383 19.9304 58.5403 19.1946 59.0355 18.4724C59.2899 18.1079 59.5444 17.7434 59.8057 17.379C60.0602 17.0213 60.3078 16.65 60.5691 16.2855C61.5938 14.8412 62.6254 13.397 63.5745 11.8977C63.6364 11.7946 63.7464 11.7327 63.8634 11.7327C63.9184 11.7327 63.9734 11.7464 64.0215 11.7739" fill="#FFE562"/>
<path d="M57.4878 23.7955C57.4878 24.2219 57.1302 24.5864 56.7038 24.5864C56.2774 24.5864 55.9198 24.2288 55.9198 23.7955C55.9198 23.3622 56.2774 23.0115 56.7038 23.0115C57.1302 23.0115 57.4878 23.3691 57.4878 23.7955Z" fill="#FFE562"/>
<path d="M40.9551 24.4968C41.8079 24.5862 42.6607 24.7031 43.5135 24.8338C44.4076 24.9714 45.3085 25.1089 46.2025 25.2465C47.9494 25.5215 49.6825 25.8654 51.4293 26.1405C51.615 26.168 51.7663 26.3124 51.7457 26.505C51.7388 26.6769 51.5669 26.8489 51.3812 26.8282C50.5353 26.6976 49.6825 26.5875 48.8297 26.4844C47.9356 26.3743 47.0347 26.2849 46.1338 26.1887C45.281 26.0924 44.4282 26.0098 43.5685 25.9411C42.6676 25.8654 41.7667 25.8104 40.8657 25.7416C40.5287 25.7141 40.2605 25.4184 40.288 25.0745C40.3087 24.765 40.5838 24.4968 40.9001 24.4968C40.9208 24.4968 40.9345 24.4968 40.9551 24.4968Z" fill="#FFE562"/>
<path d="M38.9948 24.889C38.9742 25.2054 38.7059 25.4048 38.4102 25.4048C38.1145 25.4048 37.8738 25.1022 37.8944 24.8202C37.915 24.5039 38.1833 24.3044 38.4859 24.3044C38.7885 24.3044 39.0223 24.607 39.0017 24.889" fill="#FFE562"/>
<path d="M46.8968 38.004C47.0343 38.0728 47.0618 38.2172 47.0137 38.3548C46.9518 38.5267 46.8899 38.6918 46.828 38.8637C46.8349 38.8431 46.8417 38.8224 46.8555 38.8018C46.2709 40.4524 45.7689 42.1373 45.2806 43.8154C45.1568 44.2486 45.0399 44.6819 44.923 45.1152C44.7992 45.5485 44.6891 45.9817 44.5653 46.415C44.3109 47.2884 44.0152 48.1618 43.6713 49.0078C43.6163 49.1109 43.5475 49.1934 43.4512 49.2553C43.3068 49.3516 43.1211 49.386 42.9492 49.3516C42.7772 49.3172 42.6328 49.2141 42.5365 49.0696C42.4402 48.9321 42.3921 48.7327 42.4402 48.5676C42.6878 47.6873 42.9904 46.8208 43.3343 45.9748C43.685 45.1014 44.0771 44.2418 44.4416 43.3752C45.1774 41.6353 45.8995 39.8884 46.5529 38.1209C46.5873 38.0247 46.6904 37.9834 46.7867 37.9834C46.828 37.9834 46.8692 37.9903 46.9036 38.0109" fill="#FFE562"/>
<path d="M42.2688 52.0612C42.2825 52.2813 42.1037 52.5083 41.8699 52.5083C41.6361 52.5083 41.4366 52.3501 41.4229 52.1094C41.4091 51.8893 41.5879 51.6624 41.8218 51.6624C42.0556 51.6624 42.255 51.8205 42.2688 52.0612Z" fill="#FFE562"/>
<path d="M58.7397 46.4217C58.9942 47.0407 59.2761 47.6528 59.5719 48.2511C59.5719 48.2511 59.5719 48.2442 59.5719 48.2373C59.8813 48.8632 60.2183 49.4753 60.5553 50.0805C60.9129 50.7338 61.2637 51.394 61.6282 52.0405C62.3572 53.3403 63.155 54.6057 63.7739 55.9675C63.8083 56.0706 63.8152 56.1807 63.7945 56.2907C63.7602 56.442 63.6708 56.5795 63.5401 56.6621C63.2856 56.834 62.8661 56.779 62.7079 56.497C62.2747 55.7336 61.8964 54.9359 61.5182 54.145C61.1193 53.3197 60.741 52.4875 60.3421 51.6623C59.5444 50.0117 58.8429 48.3199 58.1483 46.6281C58.0864 46.463 58.1895 46.2773 58.3477 46.2223C58.3821 46.2085 58.4165 46.2017 58.4509 46.2017C58.5815 46.2017 58.6984 46.2911 58.7535 46.4149" fill="#FFE562"/>
<path d="M65.4726 58.0651C65.4933 58.4365 65.1907 58.8216 64.7987 58.8216C64.4067 58.8216 64.0628 58.5534 64.0353 58.1476C64.0146 57.7762 64.3172 57.3911 64.7093 57.3911C65.1013 57.3911 65.4451 57.6593 65.4658 58.0651" fill="#FFE562"/>
</g>
<defs>
<clipPath id="clip0_678_63701">
<rect width="98.1463" height="71.2972" fill="white" transform="matrix(-1 0 0 1 98.5732 0)"/>
</clipPath>
</defs>
</svg>
