<svg width="511" height="247" viewBox="0 0 511 247" fill="none" xmlns="http://www.w3.org/2000/svg">
<g clip-path="url(#clip0_624_1502)">
<path d="M252.648 16.5972C257.918 123.089 203.233 160.156 234.728 232.482C270.521 214.525 304.018 204.423 333.752 207.155C340.467 207.774 346.112 212.097 349.148 218.106C358.545 236.756 403.043 243.7 459.16 246.748C471.35 181.039 424.084 103.347 320.045 14.2175C288.708 10.8422 268.347 12.627 252.648 16.585V16.5972Z" fill="#BB5633"/>
<path d="M510.202 29.4063C509.644 24.3798 506.912 19.851 502.711 17.0221C499.833 15.0917 496.482 14.0839 493.095 14.0839C491.529 14.0839 489.963 14.2903 488.433 14.7274C485.143 15.6502 481.731 16.6822 478.428 17.6656C471.071 19.8753 463.47 22.1458 456.003 23.7484C445.78 25.9338 435.193 27.8643 424.946 29.7341C416.046 31.3489 406.843 33.0244 397.737 34.8941C386.167 37.2738 367.675 41.0741 355.68 54.3081L355.728 47.3511C359.079 43.3081 360.087 37.9659 358.266 33.0122C356.153 27.3058 350.908 23.5906 344.898 23.542L334.275 23.4813L333.983 23.457C333.413 23.4084 332.854 23.3842 332.308 23.3842C331.203 23.3842 330.098 23.4813 329.005 23.6634C325.824 24.2219 323.007 25.6789 320.871 27.8157C318.297 24.999 314.642 23.3477 310.781 23.3235L295.908 23.2263L295.617 23.202C295.046 23.1535 294.488 23.1292 293.941 23.1292C293.783 23.1292 293.638 23.1413 293.48 23.1535C284.107 23.1535 270.011 26.3224 255.405 29.8433L239.718 32.9272C239.33 33.0001 238.953 33.0972 238.589 33.1943L209.401 40.1999C208.369 40.1999 207.228 40.3334 206.208 40.5641L193.071 43.5752C188.749 44.5708 185.167 47.5818 183.455 51.6734L181.161 57.1613C180.396 55.6315 179.351 54.2231 178.04 53.0454C175.478 50.7385 172.188 49.5001 168.813 49.5001C167.793 49.5001 166.761 49.6094 165.729 49.8522L147.493 54.041C144.069 54.8302 141.179 56.8092 139.2 59.5167C136.638 58.1569 133.797 57.4163 130.811 57.4163C129.924 57.4163 129.014 57.5012 128.115 57.6227C129.001 55.328 129.609 52.9847 129.912 50.6171C130.434 46.6348 130.41 43.2716 129.827 40.3334C129.73 39.8356 129.609 39.35 129.451 38.8643C127.642 33.0972 123.089 29.1149 117.419 28.2528C116.593 28.1193 115.767 28.0464 114.93 28.0464C110.522 28.0464 106.334 30.0133 103.432 33.4372C103.335 33.5464 103.25 33.6557 103.165 33.765C102.278 34.882 101.38 35.914 100.482 36.8367C100.105 37.2253 99.6924 37.5531 99.2188 37.8445C98.976 37.9902 98.4175 38.2816 97.3977 38.5851C96.6813 38.7915 95.37 39.0829 93.221 39.265C90.8899 39.4593 88.6681 39.5564 86.604 39.5564C84.3822 39.5564 82.2939 39.4471 80.3998 39.2164C76.2475 38.7186 72.3501 38.0873 68.7927 37.3224C64.6647 36.4482 60.658 35.659 56.8821 35.0034C53.7132 34.457 50.4472 34.1778 47.169 34.1778C45.5057 34.1778 43.818 34.2506 42.1304 34.3842C34.0079 35.0641 26.9538 37.2253 21.1624 40.8069C15.3345 44.4251 10.7937 48.9416 7.66123 54.2352C4.55305 59.5046 2.8047 65.1988 2.46475 71.1481C2.11265 77.3401 3.27821 83.1437 5.93716 88.3887C8.70538 93.8645 12.882 98.2596 18.3456 101.453C23.0807 104.221 28.5686 105.629 34.6756 105.629C35.8291 105.629 37.0068 105.581 38.2088 105.484C42.5068 105.119 46.4163 104.185 49.8644 102.667L53.2761 143.474C50.0587 147.93 49.5609 153.758 52.317 158.76C54.8181 163.337 59.4561 166.239 64.519 166.421C64.5311 166.421 64.5554 166.421 64.5675 166.433C64.8711 166.603 65.806 167.149 67.5665 168.534C72.1802 172.297 77.0124 174.762 81.9175 175.843C85.1471 176.547 88.0367 176.899 90.7321 176.899C91.5455 176.899 92.359 176.862 93.1482 176.802C119.726 183.055 110.219 194.006 132.437 200.271C136.626 202.092 141.519 203.027 146.995 203.027C148.088 203.027 149.472 202.978 151.317 202.893C152.726 202.821 154.146 202.626 155.555 202.335H257.517C257.906 202.335 258.282 202.311 258.671 202.286C259.059 202.311 259.448 202.335 259.848 202.335H272.415C279.323 202.335 285.637 198.207 288.538 191.748C288.988 190.74 289.303 189.696 289.546 188.652C289.752 189.502 289.983 190.351 290.323 191.201C293.043 198.013 299.465 202.42 306.69 202.42H422.955C423.622 202.42 424.278 202.371 424.934 202.298C425.589 202.371 426.245 202.42 426.913 202.42H449.411C454.801 202.42 459.974 200.477 463.98 196.944C466.809 194.455 468.995 191.383 470.5 187.826C471.763 184.839 472.491 181.634 472.673 178.319C472.892 174.543 472.346 170.889 471.046 167.453C469.565 163.543 467.101 160.059 463.92 157.412C461.467 155.372 458.65 153.915 455.566 153.078C457.084 149.557 457.436 145.623 456.465 141.738C455.117 136.432 451.463 132.219 446.764 130.046C447.674 129.22 448.573 128.382 449.447 127.484C451.547 125.31 453.017 122.664 453.745 119.81C465.146 116.059 473.402 108.786 481.209 96.6206C483.455 93.1239 484.329 88.9958 483.783 84.9892C502.031 74.924 513.371 58.3754 510.178 29.4305L510.202 29.4063Z" fill="#FCD29A"/>
<path d="M507.774 20.9073C507.215 15.8808 504.484 11.3521 500.283 8.5232C497.405 6.59274 494.054 5.58501 490.667 5.58501C489.101 5.58501 487.534 5.79141 486.004 6.2285C482.714 7.15124 479.302 8.18325 476 9.16669C468.642 11.3764 461.042 13.6468 453.575 15.2495C443.352 17.4349 432.765 19.3654 422.518 21.2352C413.618 22.8499 404.415 24.5254 395.309 26.3952C383.738 28.7749 365.247 32.5751 353.251 45.8092L353.3 38.8522C356.651 34.8091 357.659 29.467 355.837 24.5133C353.725 18.8069 348.48 15.0917 342.47 15.0431L331.846 14.9824L331.555 14.9581C330.984 14.9095 330.426 14.8853 329.879 14.8853C328.775 14.8853 327.67 14.9824 326.577 15.1645C323.396 15.723 320.579 17.18 318.442 19.3168C315.868 16.5 312.214 14.8488 308.353 14.8245L293.48 14.7274L293.188 14.7031C292.618 14.6546 292.059 14.6303 291.513 14.6303C291.355 14.6303 291.209 14.6424 291.051 14.6546C281.678 14.6546 267.582 17.8234 252.976 21.3444L237.29 24.4283C236.901 24.5012 236.525 24.5983 236.161 24.6954L206.973 31.701C205.941 31.701 204.8 31.8345 203.78 32.0652L190.643 35.0762C186.321 36.0718 182.739 39.0829 181.027 43.1745L178.732 48.6624C177.967 47.1326 176.923 45.7242 175.612 44.5465C173.05 42.2396 169.76 41.0012 166.384 41.0012C165.365 41.0012 164.333 41.1105 163.301 41.3533L145.064 45.5421C141.641 46.3312 138.751 48.3103 136.772 51.0178C134.21 49.658 131.369 48.9173 128.382 48.9173C127.496 48.9173 126.585 49.0023 125.687 49.1237C126.573 46.829 127.18 44.4858 127.484 42.1182C128.006 38.1359 127.982 34.7727 127.399 31.8345C127.302 31.3367 127.18 30.8511 127.022 30.3654C125.213 24.5983 120.66 20.6159 114.99 19.7539C114.165 19.6204 113.339 19.5475 112.501 19.5475C108.094 19.5475 103.905 21.5144 101.004 24.9383C100.906 25.0475 100.821 25.1568 100.736 25.2661C99.8501 26.3831 98.9517 27.4151 98.0532 28.3378C97.6768 28.7263 97.264 29.0542 96.7905 29.3455C96.5477 29.4912 95.9892 29.7826 94.9693 30.0862C94.253 30.2926 92.9417 30.584 90.7927 30.7661C88.4616 30.9603 86.2397 31.0575 84.1757 31.0575C81.9538 31.0575 79.8655 30.9482 77.9715 30.7175C73.8191 30.2197 69.9218 29.5884 66.3644 28.8235C62.2363 27.9493 58.2297 27.1601 54.4538 26.5045C51.2849 25.9581 48.0189 25.6789 44.7407 25.6789C43.0774 25.6789 41.3897 25.7517 39.7021 25.8853C31.5795 26.5652 24.5254 28.7263 18.734 32.308C12.9062 35.9261 8.36535 40.4427 5.23289 45.7363C2.149 51.0299 0.400649 56.7242 0.0606927 62.6734C-0.291405 68.8655 0.87416 74.6691 3.53311 79.9141C6.30133 85.3898 10.4779 89.785 15.9415 92.9782C20.6766 95.7464 26.1645 97.1548 32.2716 97.1548C33.425 97.1548 34.6027 97.1062 35.8047 97.0091C40.1027 96.6448 44.0122 95.71 47.4604 94.1923L50.8721 134.999C47.6546 139.455 47.1568 145.283 49.9129 150.285C52.414 154.862 57.052 157.764 62.1149 157.946C62.1271 157.946 62.1514 157.946 62.1635 157.958C62.467 158.128 63.4019 158.675 65.1624 160.059C69.7761 163.823 74.6083 166.287 79.5134 167.368C82.743 168.072 85.6326 168.424 88.328 168.424C89.1415 168.424 89.9549 168.388 90.7441 168.327C117.321 174.58 107.815 185.531 130.033 191.796C134.222 193.617 139.115 194.552 144.591 194.552C145.684 194.552 147.068 194.504 148.913 194.419C150.322 194.346 151.742 194.152 153.15 193.86H255.113C255.502 193.86 255.878 193.836 256.267 193.812C256.655 193.836 257.044 193.86 257.444 193.86H270.011C276.919 193.86 283.232 189.732 286.134 183.273C286.583 182.265 286.899 181.221 287.142 180.177C287.348 181.027 287.579 181.877 287.919 182.727C290.639 189.538 297.061 193.945 304.285 193.945H420.551C421.218 193.945 421.874 193.897 422.53 193.824C423.185 193.897 423.841 193.945 424.509 193.945H447.007C452.397 193.945 457.57 192.003 461.576 188.47C464.405 185.981 466.591 182.909 468.096 179.351C469.359 176.365 470.087 173.159 470.269 169.845C470.488 166.069 469.942 162.414 468.642 158.978C467.161 155.069 464.696 151.584 461.515 148.937C459.063 146.898 456.246 145.441 453.162 144.603C454.68 141.082 455.032 137.148 454.061 133.263C452.713 127.957 449.058 123.744 444.36 121.571C445.27 120.745 446.169 119.908 447.043 119.009C449.143 116.836 450.613 114.189 451.341 111.336C462.742 107.584 470.998 100.312 478.805 88.1459C481.051 84.6492 481.925 80.5212 481.379 76.5145C499.627 66.4494 510.967 49.9008 507.774 20.9559V20.9073Z" fill="#FFF7D9"/>
<path d="M359.31 98.4053H280.974C273.364 98.4053 267.194 104.575 267.194 112.186C267.194 119.796 273.364 125.966 280.974 125.966H359.31C366.921 125.966 373.09 119.796 373.09 112.186C373.09 104.575 366.921 98.4053 359.31 98.4053Z" fill="#E1D289"/>
<path d="M490.667 22.8014C493.993 52.9118 479.521 65.903 430.567 73.4792C441.786 75.2518 453.004 77.0245 464.332 78.8092C454.097 94.7508 445.404 98.4053 417.175 97.1062C424.861 101.453 429.79 104.233 434.683 107.001C414.784 127.569 381.116 112.659 372.18 92.7718C369.169 86.0819 364.434 80.1812 359.322 72.0951C362.6 51.7341 380.484 46.999 398.769 43.2473C418.183 39.265 437.803 36.2297 457.181 32.0773C468.861 29.5762 480.25 25.7274 490.667 22.8014Z" fill="#BB5633"/>
<path d="M436.626 43.1866C438.581 60.9008 430.069 68.5498 401.258 73.0057C407.863 74.0499 414.468 75.094 421.133 76.1382C415.111 85.5234 410 87.6724 393.378 86.9075C397.895 89.4693 400.797 91.1084 403.686 92.7353C391.97 104.84 372.168 96.0621 366.898 84.3578C365.126 80.424 362.333 76.9516 359.334 72.1922C361.265 60.2088 371.791 57.4284 382.548 55.2187C393.973 52.8754 405.52 51.0906 416.92 48.6502C423.792 47.1811 430.494 44.9107 436.626 43.1866Z" fill="#FFE7A4"/>
<path d="M112.841 33.3643C113.327 33.4007 113.691 33.7771 113.91 34.4935C114.189 35.9383 114.177 37.8809 113.849 40.3456C113.521 42.8103 112.611 45.2628 111.117 47.7032C109.612 50.1436 107.341 52.3291 104.294 54.2474C101.246 56.1657 97.1426 57.3434 91.9826 57.7684C87.6238 58.1326 83.86 58.2297 80.679 58.0476C77.498 57.8655 74.7055 57.5498 72.3136 57.1006L78.6393 132.838C78.7364 134.052 78.9307 135.533 79.1978 137.294C79.4649 139.054 79.902 140.827 80.4969 142.612C81.0918 144.384 81.8567 146.048 82.8037 147.602C83.7386 149.144 84.977 150.297 86.5068 151.074C87.4417 151.56 88.3887 151.948 89.3479 152.24C90.3071 152.531 90.8049 152.944 90.8534 153.515C90.902 154.158 90.4892 154.522 89.6029 154.595C87.6724 154.753 85.2927 154.535 82.4759 153.915C79.6591 153.296 76.7695 151.779 73.807 149.338C70.8445 146.983 68.477 145.514 66.6801 144.943C64.8832 144.36 63.5476 144.105 62.6613 144.178C62.4185 144.202 62.1999 144.032 62.0057 143.68C61.8114 143.328 61.9814 142.976 62.5277 142.6C63.0741 142.308 63.6326 141.713 64.2032 140.815C64.7739 139.916 64.9681 138.375 64.786 136.201L57.7441 51.8677C55.5586 50.9935 53.2396 50.2893 50.8114 49.7672C48.371 49.2452 45.2142 49.1359 41.3412 49.4637C37.2252 49.8037 33.8864 50.7143 31.3367 52.1834C28.7749 53.6525 26.893 55.4008 25.6789 57.4041C24.4647 59.4196 23.8334 61.5443 23.7727 63.7783C23.712 66.0123 24.0884 68.052 24.8897 69.8975C25.691 71.743 26.8566 73.2242 28.3742 74.3534C29.8919 75.4825 31.616 75.9682 33.5464 75.8103C35.6469 75.6404 37.2131 74.9969 38.2573 73.892C39.3014 72.7872 39.9449 71.5366 40.1999 70.1404C40.4427 68.7441 40.3698 67.2993 39.957 65.8302C39.5442 64.3611 38.9493 63.2198 38.148 62.3821C37.7837 61.8478 37.6988 61.4108 37.9173 61.0587C38.1116 60.4759 38.4515 60.1602 38.9372 60.1238C41.669 59.7352 43.9637 59.9902 45.8213 60.8887C47.6789 61.7871 49.0509 63.0377 49.9129 64.6282C50.775 66.2187 51.1271 68.0399 50.9814 70.0796C50.8235 72.1194 50.1315 74.0741 48.9052 75.9196C47.6789 77.7651 45.882 79.3799 43.5266 80.7519C41.159 82.1238 38.2087 82.9616 34.6634 83.2651C29.989 83.6536 26.0674 82.9252 22.9106 81.0797C19.7539 79.2342 17.3863 76.7695 15.8323 73.6856C14.2782 70.6139 13.6104 67.19 13.8168 63.4383C14.0353 59.6867 15.1281 56.1171 17.1314 52.7419C19.1226 49.3666 22.085 46.4648 26.031 44.0123C29.9647 41.5719 34.9184 40.1028 40.8919 39.605C44.765 39.2771 48.5167 39.435 52.1348 40.0663C55.765 40.6977 59.5653 41.4383 63.5233 42.2882C67.4935 43.1381 71.7794 43.8301 76.3688 44.3886C80.9583 44.935 86.1669 44.9714 91.9704 44.4858C94.6294 44.2672 96.9362 43.8666 98.8788 43.2959C100.821 42.7253 102.521 41.9968 103.99 41.0983C105.459 40.1999 106.795 39.1436 107.985 37.9052C109.175 36.6668 110.365 35.3069 111.542 33.8257C111.906 33.3886 112.344 33.2308 112.841 33.3522V33.3643Z" fill="#E4D17E"/>
<path d="M145.149 110.462C145.684 110.984 145.793 111.724 145.465 112.683L142.636 120.672C142.09 122.324 140.985 123.295 139.309 123.574L99.8016 130.276C99.5588 130.313 99.3281 130.155 99.0974 129.778C98.8667 129.402 99.0124 129.05 99.5345 128.722C100.032 128.309 100.542 127.642 101.04 126.743C101.538 125.833 101.611 124.266 101.222 122.032L93.136 74.3898C92.9175 73.115 92.4318 72.2772 91.6669 71.8644C90.902 71.4638 90.2464 71.0995 89.7 70.7838C89.1537 70.4682 88.9108 70.1404 88.9837 69.8004C89.0444 69.4604 89.2022 69.2662 89.4451 69.2298L92.2011 68.7684L127.508 62.7827C129.184 62.5035 130.58 63.0013 131.709 64.2882L137.282 71.7187C137.828 72.5322 137.95 73.2728 137.658 73.9284C137.355 74.5962 136.808 74.9969 136.019 75.1304L131.952 75.8225C131.393 75.9196 130.92 75.9318 130.543 75.8711C130.167 75.8103 129.766 75.6525 129.354 75.3975C128.941 75.1426 128.431 74.7783 127.812 74.3048C127.192 73.8313 126.427 73.2728 125.493 72.605C124.448 71.7916 123.283 71.3181 121.984 71.1724C120.685 71.0267 119.361 71.0631 118.001 71.2938L107.232 73.115L110.753 93.8888C111.214 92.7475 111.858 91.6548 112.659 90.6227C113.412 89.7607 114.395 88.8987 115.61 88.0366C116.824 87.1746 118.463 86.5675 120.539 86.2154C123.489 85.7177 125.869 86.0455 127.666 87.2232C129.463 88.3887 130.677 89.8821 131.32 91.7033C131.952 93.5245 132.025 95.455 131.503 97.5069C130.993 99.5587 129.9 101.222 128.224 102.485C127.848 102.715 127.532 102.728 127.241 102.533C126.974 102.412 126.804 102.157 126.743 101.756C126.95 99.0974 126.258 97.3126 124.667 96.402C123.076 95.4914 121.34 95.4064 119.458 96.1835C117.576 96.9484 115.95 98.5146 114.59 100.882C113.23 103.25 112.878 106.419 113.558 110.389L113.594 110.632C113.801 111.821 114.043 113.072 114.347 114.371C114.65 115.67 115.1 116.86 115.695 117.953C116.29 119.033 117.091 119.871 118.086 120.43C119.082 121 120.381 121.146 121.984 120.879L127.496 119.944C128.856 119.713 130.106 119.24 131.26 118.523C132.413 117.807 133.372 116.848 134.162 115.67C135.412 113.849 136.262 112.586 136.723 111.906C137.185 111.227 137.974 110.789 139.091 110.595L143.158 109.903C143.96 109.77 144.627 109.964 145.162 110.486L145.149 110.462Z" fill="#E4D17E"/>
<path d="M220.365 104.306C220.972 104.415 221.239 104.682 221.178 105.119C221.105 105.544 220.96 105.787 220.717 105.848L217.997 106.467L204.387 109.587L201.667 110.207C201.352 110.28 201.084 110.134 200.878 109.77C200.672 109.405 200.817 109.041 201.315 108.677C201.789 108.24 202.262 107.548 202.711 106.613C203.161 105.678 203.136 104.112 202.626 101.902L195.487 70.7838L189.951 84.6371C190.764 86.3611 191.298 87.7695 191.541 88.8744C191.978 90.7684 192.003 92.4075 191.602 93.7795C191.214 95.1636 190.606 96.317 189.781 97.2519C188.955 98.1868 188.045 98.9153 187.049 99.4373C186.053 99.9594 185.204 100.336 184.512 100.579C184.208 100.724 183.917 100.712 183.625 100.53C183.37 100.178 183.273 99.9108 183.322 99.7287C183.516 98.0289 183.225 96.3049 182.447 94.5687C181.67 92.8325 180.468 91.0841 178.805 89.2993C177.154 87.5267 175.151 85.6812 172.807 83.7629C170.452 81.8567 167.866 79.8048 165.049 77.6315L172.212 108.871C172.722 111.081 173.378 112.501 174.191 113.145C175.005 113.788 175.721 114.201 176.34 114.395C176.947 114.505 177.215 114.772 177.154 115.209C177.081 115.634 176.935 115.877 176.693 115.937L173.973 116.557L164.745 118.669L162.026 119.288C161.795 119.337 161.54 119.191 161.297 118.827C161.055 118.463 161.176 118.111 161.674 117.746C162.147 117.309 162.621 116.617 163.07 115.682C163.519 114.748 163.495 113.181 162.985 110.972L152.179 63.8754C151.888 62.6127 151.354 61.7993 150.564 61.4472C149.775 61.0951 149.095 60.7673 148.537 60.4759C147.978 60.1966 147.711 59.8809 147.76 59.5288C147.808 59.1889 147.942 58.9825 148.185 58.9339L150.904 58.3147L157.534 56.797L160.132 56.2021L166.409 54.7573C166.287 55.7043 166.433 56.6999 166.846 57.7684C167.222 58.679 167.769 59.711 168.497 60.8765C169.226 62.0421 170.343 63.1955 171.848 64.3368C173.803 65.9637 175.697 67.6514 177.555 69.3754C179.4 71.1116 181.124 72.9207 182.727 74.7905L193.751 48.4681L198.838 47.3025L200.963 46.8169L204.156 46.0884L206.876 45.4692C207.106 45.4206 207.325 45.5299 207.519 45.8213C207.714 46.1127 207.616 46.5012 207.228 47.0112C206.852 47.5211 206.378 48.1039 205.832 48.7716C205.273 49.4394 205.152 50.3986 205.431 51.6613L216.237 98.7574C216.747 100.967 217.402 102.388 218.216 103.031C219.029 103.675 219.746 104.087 220.365 104.282V104.306Z" fill="#E4D17E"/>
<path d="M283.415 90.1371C283.961 90.3435 284.204 90.6227 284.155 90.9627C284.107 91.3026 283.961 91.4969 283.73 91.5576L262.981 96.1227C262.738 96.1713 262.519 96.0135 262.313 95.6492C262.107 95.285 262.228 94.9693 262.665 94.7022C263.43 94.0344 263.855 93.2574 263.952 92.3711C264.049 91.4848 263.952 90.5013 263.685 89.445C263.406 88.3887 263.017 87.3567 262.507 86.349C261.997 85.3413 261.512 84.3942 261.075 83.4958L241.126 81.5532L239.694 92.5653C239.633 93.8159 239.767 94.8479 240.058 95.6492C240.362 96.4506 240.701 97.0819 241.09 97.5311C241.479 97.9804 241.891 98.3325 242.316 98.5632C242.741 98.7938 243.045 98.9395 243.215 98.9881C243.664 99.1338 243.882 99.4009 243.882 99.7773C243.882 100.154 243.761 100.36 243.53 100.421L228.002 103.845C227.686 103.917 227.455 103.796 227.31 103.505C227.164 103.201 227.285 102.849 227.698 102.424C227.905 102.218 228.208 101.938 228.633 101.598C229.058 101.259 229.507 100.761 229.981 100.117C230.454 99.4738 230.928 98.5996 231.389 97.5069C231.85 96.4141 232.178 94.9693 232.36 93.1846L238.322 43.5023C238.322 42.3489 238.03 41.6204 237.472 41.329C236.913 41.0376 236.391 40.7462 235.906 40.4306C235.347 40.1392 235.092 39.8235 235.141 39.4835C235.189 39.1436 235.335 38.9493 235.566 38.8886L237.933 38.3665L254.3 34.7606C254.615 34.6877 254.846 34.8091 254.992 35.1005C255.137 35.4041 255.016 35.8047 254.64 36.3025C254.13 36.9946 253.778 37.5895 253.608 38.0873C253.426 38.5851 253.668 39.4228 254.348 40.6005L276.348 83.4958C277.271 85.0377 278.109 86.2154 278.874 87.0411C279.639 87.8667 280.306 88.4859 280.901 88.8987C281.484 89.3115 281.982 89.5907 282.395 89.7486C282.808 89.9064 283.147 90.04 283.415 90.1492V90.1371ZM256.862 75.094L244.684 51.4184L242.001 73.6492L256.862 75.094Z" fill="#E4D17E"/>
<path d="M342.009 89.1536C342.567 89.3965 342.773 89.7243 342.616 90.125C342.446 90.5256 342.251 90.732 342.009 90.732L328.289 90.647C328.046 90.647 327.84 90.4406 327.682 90.04C327.524 89.6393 327.73 89.3115 328.289 89.0687C328.774 88.8258 329.309 88.3645 329.879 87.6845C330.45 87.0046 330.826 85.8026 330.996 84.115C331.008 81.7717 330.341 79.3192 328.981 76.7574C327.621 74.1956 325.921 71.6823 323.869 69.1933C321.818 66.7165 319.571 64.3125 317.119 61.9814C314.666 59.6503 312.335 57.5862 310.113 55.7408C307.891 53.9074 305.949 52.3533 304.249 51.0906C302.561 49.8279 301.505 48.9902 301.104 48.5774L300.886 82.5731C300.874 84.8435 301.189 86.3733 301.833 87.1989C302.476 88.0124 303.083 88.583 303.642 88.9108C304.2 89.1536 304.407 89.4815 304.249 89.8821C304.079 90.2828 303.885 90.4892 303.642 90.4892L289.922 90.4042C289.679 90.4042 289.473 90.1978 289.315 89.7971C289.157 89.3965 289.364 89.0687 289.922 88.8258C290.493 88.5102 291.1 87.9395 291.756 87.1382C292.411 86.3369 292.739 84.7949 292.751 82.5366L293.055 34.2142C293.055 32.9151 292.727 32.0045 292.035 31.4824C291.355 30.9482 290.772 30.4868 290.287 30.074C289.728 29.5884 289.522 29.2241 289.679 28.9813C289.837 28.7385 290.141 28.5806 290.59 28.4957C291.039 28.4228 291.525 28.3985 292.047 28.4471C292.569 28.4957 292.909 28.5078 293.079 28.5199L308.256 28.6171C307.515 31.2032 307.94 33.7771 309.543 36.3389C311.145 38.9008 313.258 41.4626 315.868 44.0244C318.479 46.5862 321.235 49.0995 324.137 51.5399C327.038 53.9803 329.406 56.3842 331.251 58.7518L331.409 34.4692C331.409 33.1701 331.081 32.2595 330.389 31.7252C329.709 31.191 329.127 30.7297 328.641 30.3169C328.082 29.8312 327.876 29.467 328.046 29.2241C328.204 28.9813 328.507 28.8235 328.957 28.7385C329.406 28.6656 329.891 28.6414 330.414 28.6899C330.936 28.7385 331.276 28.7506 331.446 28.7628L342.373 28.8356C342.616 28.8356 342.798 29.0056 342.919 29.3213C343.041 29.6491 342.858 30.0133 342.361 30.414C341.875 30.8147 341.28 31.276 340.588 31.7981C339.896 32.3202 339.544 33.2308 339.544 34.5178L339.24 82.8402C339.228 85.1106 339.544 86.6404 340.187 87.466C340.831 88.2795 341.438 88.8501 341.996 89.1779L342.009 89.1536Z" fill="#E4D17E"/>
<path d="M256.424 54.2474C254.834 54.2474 253.256 53.6889 251.993 52.6326C250.099 51.0421 249.213 48.5652 249.65 46.137C252.539 30.1712 261.742 20.3488 277.769 16.1237C278.34 15.978 278.934 15.893 279.529 15.893C279.93 15.893 280.331 15.9294 280.731 16.0022C293.103 18.1877 300.667 25.0475 303.873 36.946C304.516 39.3257 303.824 41.8754 302.076 43.6116C300.765 44.9107 299.016 45.6149 297.219 45.6149C296.612 45.6149 295.993 45.5299 295.386 45.3721C289.922 43.8666 285.479 42.0575 281.982 39.9328C277.392 45.2385 269.707 49.8279 258.792 53.8467C258.015 54.126 257.214 54.2717 256.412 54.2717L256.424 54.2474Z" fill="#FFF7DC"/>
<path d="M139.698 144.664C139.698 146.109 140.232 147.323 141.288 148.306C142.345 149.29 143.668 150.2 145.246 151.026C146.825 151.851 148.512 152.689 150.322 153.551C152.131 154.401 153.77 155.397 155.251 156.538C156.72 157.679 157.886 159.051 158.748 160.654C159.597 162.256 159.901 164.223 159.634 166.542C159.27 169.335 158.432 171.46 157.109 172.904C155.785 174.349 154.328 175.418 152.725 176.085C151.123 176.753 149.557 177.13 148.027 177.215C146.497 177.287 145.356 177.336 144.579 177.336C141.471 177.336 138.921 176.899 136.893 176.013C134.878 175.138 133.336 174.046 132.28 172.759C131.223 171.46 130.58 170.051 130.385 168.534C130.179 167.004 130.325 165.595 130.81 164.308C131.296 163.021 132.097 161.929 133.214 161.054C134.331 160.18 135.679 159.731 137.282 159.731C139.091 159.731 140.426 160.059 141.276 160.702C142.126 161.346 142.636 162.074 142.794 162.876C142.952 163.677 142.818 164.43 142.405 165.122C141.993 165.814 141.446 166.19 140.778 166.251C140.523 166.251 140.366 166.178 140.317 166.02C139.795 165.401 139.285 165.134 138.763 165.207C138.241 165.28 137.816 165.571 137.488 166.057C137.148 166.554 136.954 167.162 136.905 167.878C136.857 168.606 137.051 169.311 137.488 170.015C137.925 170.707 138.654 171.302 139.661 171.8C140.669 172.285 142.078 172.54 143.887 172.54C144.919 172.54 145.817 172.37 146.558 172.03C147.31 171.69 147.918 171.253 148.379 170.707C148.84 170.16 149.192 169.566 149.423 168.922C149.654 168.279 149.775 167.647 149.775 167.028C149.775 165.17 149.314 163.604 148.379 162.329C147.444 161.067 146.291 159.962 144.931 159.027C143.559 158.092 142.065 157.242 140.426 156.465C138.799 155.688 137.294 154.862 135.922 153.988C134.55 153.114 133.397 152.094 132.474 150.929C131.539 149.763 131.078 148.33 131.078 146.618C131.078 144.032 131.697 142.053 132.935 140.681C134.174 139.309 135.606 138.314 137.245 137.695C138.872 137.075 140.463 136.711 142.017 136.614C143.571 136.517 144.652 136.456 145.271 136.456C147.748 136.456 149.848 136.675 151.548 137.112C153.26 137.549 154.607 138.12 155.615 138.824C156.623 139.528 157.351 140.317 157.788 141.191C158.226 142.065 158.444 142.976 158.444 143.911C158.444 144.846 158.274 145.732 157.934 146.582C157.594 147.432 157.121 148.148 156.501 148.719C155.882 149.29 155.166 149.666 154.365 149.848C153.563 150.03 152.725 149.945 151.839 149.581C151.584 149.484 151.402 149.302 151.293 149.035C151.244 148.719 151.317 148.464 151.524 148.258C152.301 147.383 152.738 146.497 152.847 145.623C152.944 144.749 152.738 143.96 152.228 143.255C151.706 142.551 150.892 141.993 149.787 141.543C148.67 141.106 147.323 140.888 145.72 140.888C144.482 140.888 143.474 141.033 142.697 141.313C141.92 141.592 141.313 141.932 140.876 142.32C140.438 142.709 140.123 143.122 139.941 143.559C139.759 143.996 139.674 144.372 139.674 144.688L139.698 144.664Z" fill="#BB5633"/>
<path d="M196.009 175.685C196.325 175.891 196.434 176.098 196.361 176.304C196.289 176.51 196.167 176.62 196.009 176.62H182.435C182.277 176.62 182.168 176.486 182.083 176.231C182.01 175.976 182.12 175.794 182.435 175.685C183.006 175.369 183.382 174.944 183.564 174.41C183.747 173.864 183.819 173.244 183.795 172.552C183.771 171.848 183.662 171.156 183.479 170.452C183.297 169.748 183.127 169.092 182.97 168.473L170.792 164.515L168.388 171.18C168.181 171.957 168.121 172.613 168.194 173.159C168.266 173.706 168.4 174.143 168.582 174.483C168.764 174.823 168.971 175.09 169.201 175.296C169.432 175.503 169.602 175.636 169.711 175.685C169.966 175.843 170.075 176.037 170.027 176.268C169.978 176.498 169.869 176.62 169.711 176.62H159.549C159.343 176.62 159.209 176.51 159.16 176.304C159.112 176.098 159.233 175.891 159.549 175.685C159.707 175.575 159.937 175.454 160.253 175.296C160.569 175.138 160.909 174.896 161.297 174.556C161.686 174.216 162.099 173.742 162.536 173.123C162.973 172.504 163.373 171.654 163.738 170.561L174.289 140.39C174.446 139.661 174.361 139.176 174.058 138.921C173.742 138.666 173.463 138.411 173.208 138.144C172.892 137.889 172.783 137.658 172.856 137.44C172.929 137.233 173.05 137.124 173.208 137.124H185.459C185.665 137.124 185.798 137.233 185.847 137.44C185.896 137.646 185.774 137.877 185.459 138.144C185.046 138.508 184.742 138.824 184.572 139.115C184.39 139.394 184.426 139.953 184.694 140.778L192.525 170.561C192.889 171.642 193.253 172.504 193.605 173.123C193.97 173.742 194.297 174.216 194.613 174.556C194.929 174.896 195.196 175.138 195.427 175.296C195.657 175.454 195.851 175.575 196.009 175.685ZM181.5 162.657L177.154 146.218L172.419 159.719L181.488 162.669L181.5 162.657Z" fill="#BB5633"/>
<path d="M225.792 137.452C225.84 137.658 225.719 137.889 225.403 138.156C225.148 138.411 224.663 138.666 223.971 138.897C223.279 139.127 222.562 139.783 221.834 140.876V140.803L212.06 155.7V171.678C212.06 173.123 212.266 174.106 212.679 174.628C213.092 175.151 213.481 175.503 213.845 175.709C214.209 175.867 214.33 176.061 214.233 176.292C214.124 176.522 214.003 176.644 213.845 176.644H201.279C201.121 176.644 200.999 176.522 200.89 176.292C200.781 176.061 200.914 175.867 201.279 175.709C201.643 175.503 202.031 175.138 202.444 174.628C202.857 174.106 203.063 173.123 203.063 171.678V155.7L194.37 140.803C193.848 139.929 193.29 139.334 192.658 139.018C192.027 138.702 191.602 138.423 191.335 138.168C191.019 137.913 190.898 137.682 190.946 137.464C190.995 137.257 191.128 137.148 191.335 137.148H202.966C203.124 137.148 203.233 137.257 203.318 137.464C203.391 137.67 203.282 137.901 202.966 138.168C202.651 138.423 202.529 138.739 202.578 139.103C202.626 139.467 202.857 140.014 203.282 140.73L209.183 150.892L215.775 140.803C216.443 139.868 216.734 139.237 216.625 138.897C216.516 138.557 216.394 138.29 216.237 138.083C216.079 137.828 216.067 137.61 216.2 137.427C216.334 137.245 216.528 137.16 216.783 137.16H225.391C225.598 137.16 225.731 137.27 225.78 137.476L225.792 137.452Z" fill="#BB5633"/>
<path d="M255.113 175.685C255.417 175.891 255.538 176.098 255.465 176.304C255.392 176.51 255.271 176.62 255.113 176.62H241.539C241.381 176.62 241.272 176.486 241.187 176.231C241.114 175.976 241.224 175.794 241.539 175.685C242.11 175.369 242.486 174.944 242.668 174.41C242.85 173.864 242.923 173.244 242.899 172.552C242.875 171.848 242.765 171.156 242.583 170.452C242.401 169.748 242.231 169.092 242.073 168.473L229.896 164.515L227.492 171.18C227.285 171.957 227.225 172.613 227.297 173.159C227.37 173.706 227.504 174.143 227.686 174.483C227.868 174.823 228.074 175.09 228.305 175.296C228.536 175.503 228.706 175.636 228.815 175.685C229.07 175.843 229.179 176.037 229.131 176.268C229.082 176.498 228.973 176.62 228.815 176.62H218.653C218.446 176.62 218.313 176.51 218.264 176.304C218.216 176.098 218.337 175.891 218.653 175.685C218.811 175.575 219.041 175.454 219.357 175.296C219.673 175.138 220.013 174.896 220.401 174.556C220.79 174.216 221.203 173.742 221.64 173.123C222.077 172.504 222.477 171.654 222.842 170.561L233.392 140.39C233.55 139.661 233.465 139.176 233.162 138.921C232.846 138.666 232.567 138.411 232.312 138.144C231.996 137.889 231.887 137.658 231.96 137.44C232.033 137.233 232.154 137.124 232.312 137.124H244.562C244.769 137.124 244.902 137.233 244.951 137.44C244.999 137.646 244.878 137.877 244.562 138.144C244.15 138.508 243.846 138.824 243.676 139.115C243.494 139.394 243.53 139.953 243.797 140.778L251.629 170.561C251.993 171.642 252.357 172.504 252.709 173.123C253.061 173.742 253.413 174.216 253.717 174.556C254.033 174.896 254.3 175.138 254.53 175.296C254.761 175.454 254.955 175.575 255.113 175.685ZM240.604 162.657L236.258 146.218L231.523 159.719L240.592 162.669L240.604 162.657Z" fill="#BB5633"/>
<path d="M274.43 137.136C277.271 137.136 279.614 137.719 281.448 138.884C283.281 140.05 284.617 141.507 285.442 143.267C286.268 145.028 286.62 146.934 286.486 149.01C286.353 151.074 285.782 152.993 284.774 154.753C283.767 156.514 282.346 157.971 280.513 159.136C278.679 160.302 276.445 160.884 273.799 160.884H268.214V171.666C268.214 173.111 268.42 174.094 268.833 174.616C269.246 175.138 269.634 175.491 269.998 175.697C270.363 175.855 270.484 176.049 270.387 176.28C270.278 176.51 270.156 176.632 269.998 176.632H257.432C257.274 176.632 257.153 176.51 257.044 176.28C256.946 176.049 257.068 175.855 257.432 175.697C257.796 175.491 258.185 175.126 258.598 174.616C259.01 174.094 259.217 173.111 259.217 171.666V140.791C259.217 139.965 258.998 139.382 258.561 139.042C258.124 138.702 257.748 138.411 257.432 138.156C257.116 137.901 257.007 137.67 257.08 137.452C257.153 137.245 257.274 137.136 257.432 137.136H274.418H274.43ZM271.176 156.453C272.73 156.453 274.041 156.077 275.134 155.324C276.215 154.571 277.052 153.66 277.611 152.568C278.182 151.487 278.509 150.285 278.582 148.962C278.655 147.638 278.461 146.436 277.999 145.356C277.538 144.275 276.761 143.352 275.668 142.6C274.588 141.847 273.216 141.471 271.552 141.471H268.214V156.441H271.164L271.176 156.453Z" fill="#BB5633"/>
<path d="M334.93 166.069C335.707 166.639 336.266 167.501 336.594 168.667C336.934 169.833 336.934 171.01 336.594 172.2C336.254 173.39 335.525 174.434 334.384 175.345C333.243 176.243 331.567 176.705 329.345 176.705C327.633 176.705 326.286 176.365 325.278 175.697C324.27 175.029 323.457 174.155 322.837 173.099C322.218 172.042 321.72 170.877 321.368 169.614C321.004 168.351 320.628 167.125 320.239 165.935C319.851 164.745 319.353 163.665 318.722 162.681C318.102 161.698 317.216 160.969 316.087 160.508C315.929 160.824 315.783 161.103 315.662 161.358C315.528 161.613 315.419 161.856 315.31 162.062C315.201 162.269 315.128 162.451 315.079 162.609V171.678C315.079 173.123 315.286 174.106 315.698 174.628C316.111 175.151 316.5 175.503 316.864 175.709C317.228 175.867 317.35 176.073 317.252 176.328C317.143 176.583 317.022 176.717 316.864 176.717H304.298C304.14 176.717 304.018 176.583 303.909 176.328C303.812 176.073 303.933 175.867 304.298 175.709C304.662 175.503 305.05 175.138 305.463 174.628C305.876 174.106 306.082 173.123 306.082 171.678V140.803C306.082 139.977 305.864 139.394 305.427 139.054C304.99 138.714 304.613 138.423 304.298 138.168C303.982 137.913 303.873 137.682 303.946 137.464C304.018 137.257 304.14 137.148 304.298 137.148H316.864C317.022 137.148 317.131 137.257 317.216 137.464C317.289 137.67 317.18 137.901 316.864 138.168C316.548 138.423 316.184 138.727 315.735 139.054C315.298 139.394 315.079 139.977 315.079 140.803V153.988C316.366 151.451 317.617 149.156 318.807 147.08C319.996 145.016 321.15 143.243 322.255 141.762C323.372 140.293 324.501 139.152 325.666 138.35C326.832 137.549 328.082 137.148 329.43 137.148C331.239 137.148 332.599 137.561 333.497 138.387C334.396 139.212 334.954 140.184 335.161 141.301C335.367 142.418 335.258 143.522 334.857 144.639C334.445 145.756 333.825 146.57 333 147.08C332.89 147.189 332.66 147.238 332.296 147.238C332.041 147.189 331.883 147.031 331.834 146.776C331.579 146.363 331.227 146.072 330.79 145.89C330.353 145.708 329.867 145.623 329.357 145.623C328.422 145.623 327.5 145.902 326.565 146.473C325.63 147.043 324.719 147.796 323.809 148.719C322.898 149.642 322.036 150.698 321.21 151.863C320.385 153.029 319.608 154.182 318.879 155.312C319.911 155.676 320.798 156.137 321.514 156.708C322.243 157.279 322.995 158.068 323.797 159.075C324.598 160.083 325.278 161.394 325.848 162.997C326.468 164.648 327.184 165.85 327.985 166.603C328.787 167.356 329.576 167.793 330.353 167.926C331.13 168.06 331.822 167.951 332.453 167.611C333.073 167.271 333.485 166.87 333.692 166.409C333.789 166.154 333.971 165.996 334.238 165.947C334.493 165.85 334.724 165.899 334.942 166.105L334.93 166.069Z" fill="#BB5633"/>
<path d="M370.261 169.056C370.541 169.444 370.528 169.918 370.225 170.488L367.59 175.223C367.068 176.207 366.267 176.692 365.186 176.692H339.592C339.435 176.692 339.313 176.559 339.204 176.304C339.107 176.049 339.228 175.843 339.592 175.685C339.957 175.478 340.345 175.114 340.758 174.604C341.171 174.082 341.377 173.099 341.377 171.654V140.778C341.377 139.953 341.159 139.37 340.722 139.03C340.284 138.69 339.908 138.399 339.592 138.144C339.277 137.889 339.167 137.658 339.24 137.44C339.313 137.233 339.435 137.124 339.592 137.124H364.264C365.344 137.124 366.182 137.585 366.74 138.52L369.46 143.79C369.715 144.36 369.715 144.834 369.46 145.222C369.205 145.611 368.817 145.805 368.294 145.805H365.66C365.296 145.805 365.004 145.769 364.773 145.684C364.543 145.599 364.312 145.465 364.069 145.259C363.839 145.052 363.547 144.773 363.219 144.409C362.879 144.045 362.454 143.607 361.945 143.085C361.374 142.466 360.694 142.041 359.893 141.811C359.091 141.58 358.254 141.458 357.367 141.458H350.386V154.923C350.799 154.255 351.321 153.636 351.94 153.065C352.511 152.604 353.215 152.167 354.077 151.754C354.927 151.341 356.032 151.135 357.367 151.135C359.286 151.135 360.743 151.596 361.75 152.531C362.758 153.454 363.365 154.535 363.571 155.737C363.778 156.951 363.608 158.177 363.062 159.415C362.515 160.654 361.653 161.589 360.463 162.196C360.208 162.305 360.002 162.269 359.844 162.123C359.686 162.026 359.613 161.844 359.613 161.577C360.026 159.925 359.783 158.723 358.873 157.983C357.962 157.23 356.882 156.999 355.619 157.291C354.356 157.57 353.166 158.383 352.049 159.731C350.932 161.067 350.386 163.034 350.386 165.607V165.765C350.386 166.542 350.41 167.356 350.459 168.206C350.507 169.056 350.665 169.857 350.92 170.61C351.175 171.362 351.588 171.957 352.159 172.431C352.729 172.892 353.531 173.123 354.563 173.123H358.132C359.006 173.123 359.856 172.953 360.658 172.625C361.459 172.297 362.175 171.8 362.794 171.132C363.778 170.112 364.446 169.42 364.81 169.031C365.174 168.655 365.708 168.461 366.437 168.461H369.071C369.581 168.461 369.994 168.655 370.273 169.043L370.261 169.056Z" fill="#BB5633"/>
<path d="M394.726 148.622C394.568 148.78 394.471 148.986 394.41 149.241C394.362 149.496 394.374 149.775 394.447 150.054C394.52 150.334 394.677 150.589 394.908 150.795C395.139 151.001 395.467 151.111 395.879 151.111C396.705 151.111 397.349 150.637 397.822 149.678C398.283 148.719 398.453 147.675 398.332 146.533C398.198 145.392 397.676 144.348 396.741 143.389C395.807 142.43 394.362 141.956 392.395 141.956C390.222 141.956 388.413 142.697 386.968 144.166C385.523 145.635 384.406 147.493 383.629 149.714C382.852 151.936 382.415 154.34 382.305 156.926C382.196 159.513 382.463 161.917 383.083 164.138C383.702 166.36 384.661 168.206 385.948 169.687C387.235 171.156 388.874 171.897 390.841 171.897C392.808 171.897 394.41 171.423 395.491 170.464C396.572 169.505 397.3 168.473 397.664 167.356C398.028 166.239 398.053 165.207 397.737 164.248C397.421 163.288 396.887 162.815 396.11 162.815C395.697 162.815 395.418 162.645 395.26 162.305C395.102 161.965 395.102 161.601 395.26 161.224C395.418 160.848 395.77 160.472 396.304 160.144C396.851 159.804 397.64 159.634 398.672 159.634C400.068 159.634 401.234 160.059 402.169 160.909C403.104 161.759 403.747 162.803 404.111 164.053C404.476 165.292 404.512 166.664 404.233 168.169C403.953 169.675 403.298 171.035 402.29 172.285C401.282 173.524 399.85 174.568 397.98 175.43C396.122 176.28 393.791 176.705 390.999 176.705C387.89 176.705 385.207 176.134 382.937 174.993C380.654 173.851 378.784 172.358 377.315 170.488C375.846 168.619 374.754 166.518 374.062 164.163C373.369 161.807 373.066 159.391 373.175 156.914C373.284 154.437 373.758 152.021 374.608 149.666C375.458 147.311 376.672 145.21 378.25 143.34C379.829 141.483 381.747 139.977 384.03 138.836C386.3 137.695 388.947 137.124 391.946 137.124C392.978 137.124 393.84 137.233 394.544 137.44C395.248 137.646 395.867 137.889 396.402 138.18C396.948 138.459 397.421 138.714 397.834 138.921C398.247 139.127 398.708 139.237 399.23 139.237C399.546 139.237 399.777 139.152 399.935 138.969C400.092 138.787 400.214 138.605 400.323 138.423C400.42 138.241 400.542 138.059 400.675 137.877C400.809 137.695 400.979 137.61 401.185 137.61C401.853 137.61 402.472 138.059 403.043 138.969C403.613 139.88 404.038 141.021 404.318 142.418C404.597 143.814 404.706 145.307 404.633 146.873C404.56 148.452 404.221 149.933 403.626 151.329C403.031 152.726 402.108 153.879 400.87 154.777C399.631 155.688 398.004 156.137 395.977 156.137C393.706 156.137 392.055 155.664 391.047 154.705C390.039 153.745 389.493 152.689 389.42 151.524C389.347 150.358 389.651 149.29 390.355 148.306C391.047 147.323 391.994 146.837 393.184 146.837C394.058 146.837 394.629 147.068 394.896 147.541C395.151 148.003 395.102 148.367 394.738 148.622H394.726Z" fill="#BB5633"/>
<path d="M420.563 175.685C420.927 175.843 421.048 176.049 420.951 176.304C420.842 176.559 420.721 176.692 420.563 176.692H407.997C407.839 176.692 407.717 176.559 407.608 176.304C407.511 176.049 407.632 175.843 407.997 175.685C408.361 175.478 408.749 175.114 409.162 174.604C409.575 174.082 409.781 173.099 409.781 171.654V140.778C409.781 139.953 409.563 139.37 409.126 139.03C408.689 138.69 408.312 138.399 407.997 138.144C407.681 137.889 407.572 137.658 407.644 137.44C407.717 137.233 407.839 137.124 407.997 137.124H420.563C420.721 137.124 420.818 137.233 420.878 137.44C420.927 137.646 420.83 137.877 420.563 138.144C420.247 138.399 419.883 138.702 419.434 139.03C418.997 139.37 418.778 139.953 418.778 140.778V171.654C418.778 173.099 418.984 174.082 419.397 174.604C419.81 175.126 420.199 175.478 420.563 175.685Z" fill="#BB5633"/>
<path d="M446.849 160.957C448.354 160.957 449.568 161.346 450.491 162.123C451.426 162.9 452.106 163.871 452.543 165.037C452.98 166.202 453.162 167.465 453.089 168.837C453.017 170.209 452.725 171.472 452.24 172.637C451.742 173.803 451.062 174.774 450.188 175.551C449.313 176.328 448.245 176.717 447.007 176.717H424.509C424.351 176.717 424.23 176.583 424.12 176.328C424.023 176.073 424.145 175.867 424.509 175.709C424.873 175.503 425.262 175.138 425.674 174.628C426.087 174.106 426.294 173.123 426.294 171.678V140.803C426.294 139.977 426.075 139.394 425.638 139.054C425.201 138.714 424.824 138.423 424.509 138.168C424.193 137.913 424.084 137.682 424.157 137.464C424.23 137.257 424.351 137.148 424.509 137.148H437.075C437.233 137.148 437.33 137.257 437.391 137.464C437.439 137.67 437.342 137.901 437.075 138.156C436.759 138.411 436.395 138.714 435.946 139.042C435.509 139.382 435.29 139.953 435.29 140.778V173.135H440.329C441.98 173.135 443.255 172.929 444.129 172.516C445.003 172.103 445.659 171.617 446.072 171.047C446.533 170.476 446.8 169.784 446.849 168.971C446.849 168.303 446.776 167.829 446.618 167.55C446.46 167.271 446.278 167.101 446.072 167.052C445.865 167.004 445.659 167.016 445.453 167.089C445.246 167.162 445.113 167.234 445.064 167.283C444.336 167.696 443.607 167.671 442.854 167.21C442.102 166.749 441.749 165.996 441.81 164.976C441.907 164.053 442.344 163.155 443.085 162.281C443.838 161.407 445.088 160.969 446.849 160.969V160.957Z" fill="#BB5633"/>
<path d="M285.673 104.828C286.656 104.828 287.494 105.034 288.21 105.459C288.927 105.884 289.51 106.443 289.971 107.135C290.432 107.827 290.772 108.616 290.979 109.49C291.185 110.365 291.282 111.263 291.27 112.186C291.246 113.108 291.124 114.007 290.894 114.881C290.663 115.755 290.335 116.544 289.898 117.236C289.461 117.929 288.939 118.487 288.308 118.912C287.676 119.337 286.972 119.543 286.159 119.543H279.675C279.675 119.543 279.566 119.495 279.529 119.398C279.493 119.301 279.529 119.228 279.675 119.167C279.809 119.094 279.954 118.961 280.112 118.766C280.27 118.572 280.343 118.208 280.343 117.674V106.2C280.343 105.897 280.258 105.678 280.1 105.557C279.942 105.435 279.796 105.326 279.687 105.229C279.566 105.132 279.529 105.047 279.554 104.974C279.578 104.901 279.627 104.852 279.687 104.852H285.685L285.673 104.828ZM285.09 118.208C285.721 118.208 286.268 117.916 286.717 117.346C287.166 116.775 287.518 116.047 287.749 115.172C287.992 114.298 288.113 113.351 288.125 112.344C288.125 111.324 288.028 110.389 287.798 109.515C287.567 108.64 287.203 107.924 286.705 107.341C286.207 106.771 285.576 106.479 284.799 106.479H283.67V118.208H285.078H285.09Z" fill="#BB5633"/>
<path d="M297.377 119.155C297.511 119.216 297.559 119.288 297.523 119.386C297.486 119.483 297.438 119.531 297.377 119.531H292.703C292.703 119.531 292.594 119.483 292.557 119.386C292.521 119.288 292.557 119.216 292.703 119.155C292.836 119.082 292.982 118.948 293.14 118.754C293.298 118.56 293.371 118.196 293.371 117.661V106.188C293.371 105.884 293.286 105.666 293.128 105.544C292.97 105.423 292.824 105.314 292.715 105.217C292.593 105.119 292.557 105.034 292.581 104.962C292.606 104.889 292.654 104.84 292.715 104.84H297.389C297.389 104.84 297.486 104.877 297.511 104.962C297.535 105.034 297.486 105.119 297.389 105.217C297.28 105.314 297.134 105.423 296.977 105.544C296.819 105.666 296.734 105.884 296.734 106.188V117.661C296.734 118.196 296.807 118.56 296.964 118.754C297.122 118.948 297.268 119.082 297.401 119.155H297.377Z" fill="#BB5633"/>
<path d="M312.687 111.542C313.476 111.542 314.144 111.736 314.691 112.137C315.237 112.526 315.638 113.023 315.905 113.618C316.16 114.213 316.281 114.857 316.257 115.537C316.233 116.217 316.05 116.86 315.71 117.455C315.37 118.05 314.873 118.548 314.193 118.936C313.525 119.325 312.675 119.531 311.655 119.531H304.395C304.395 119.531 304.285 119.483 304.249 119.386C304.213 119.288 304.249 119.216 304.395 119.155C304.528 119.082 304.674 118.948 304.832 118.754C304.99 118.56 305.063 118.196 305.063 117.661V106.188C305.063 105.884 304.978 105.666 304.82 105.544C304.662 105.423 304.516 105.314 304.407 105.217C304.273 105.107 304.225 105.01 304.261 104.962C304.298 104.913 304.37 104.864 304.48 104.864C304.589 104.864 304.698 104.852 304.832 104.852H311.097C312.044 104.852 312.809 105.01 313.391 105.326C313.974 105.642 314.411 106.042 314.703 106.528C314.994 107.014 315.152 107.523 315.176 108.082C315.2 108.64 315.128 109.163 314.933 109.672C314.739 110.182 314.448 110.595 314.071 110.959C313.683 111.312 313.234 111.518 312.712 111.579L312.687 111.542ZM308.389 110.68H310.028C310.587 110.68 311.012 110.462 311.315 110.037C311.619 109.6 311.765 109.126 311.777 108.604C311.777 108.082 311.667 107.608 311.4 107.159C311.145 106.722 310.733 106.491 310.174 106.467H308.389V110.68ZM310.429 118.208C310.927 118.208 311.352 118.074 311.692 117.807C312.044 117.54 312.299 117.2 312.481 116.787C312.663 116.374 312.76 115.937 312.772 115.452C312.784 114.966 312.712 114.529 312.554 114.116C312.396 113.703 312.165 113.351 311.85 113.072C311.534 112.781 311.121 112.635 310.623 112.611H308.377V118.208H310.429Z" fill="#BB5633"/>
<path d="M329.952 119.155C330.061 119.228 330.11 119.313 330.086 119.386C330.061 119.458 330.013 119.495 329.952 119.495H324.901C324.901 119.495 324.804 119.446 324.768 119.349C324.744 119.252 324.78 119.191 324.901 119.143C325.108 119.021 325.254 118.863 325.314 118.669C325.375 118.463 325.411 118.232 325.399 117.977C325.399 117.722 325.351 117.455 325.29 117.2C325.217 116.945 325.156 116.69 325.108 116.459L320.579 114.99L319.681 117.467C319.608 117.759 319.584 118.001 319.608 118.208C319.632 118.414 319.681 118.572 319.753 118.693C319.826 118.815 319.899 118.924 319.984 118.997C320.069 119.07 320.13 119.118 320.166 119.143C320.263 119.203 320.3 119.276 320.276 119.361C320.251 119.446 320.215 119.495 320.166 119.495H316.39C316.317 119.495 316.269 119.458 316.245 119.386C316.22 119.313 316.269 119.228 316.39 119.155C316.451 119.118 316.536 119.07 316.645 119.009C316.755 118.948 316.888 118.863 317.034 118.73C317.18 118.608 317.337 118.426 317.495 118.196C317.653 117.965 317.811 117.649 317.944 117.249L321.866 106.03C321.927 105.763 321.89 105.581 321.781 105.484C321.672 105.387 321.563 105.289 321.465 105.192C321.344 105.095 321.308 105.01 321.332 104.937C321.356 104.864 321.405 104.816 321.465 104.816H326.018C326.091 104.816 326.14 104.852 326.164 104.937C326.188 105.01 326.14 105.095 326.018 105.192C325.861 105.326 325.751 105.447 325.691 105.557C325.618 105.666 325.642 105.872 325.739 106.176L328.653 117.249C328.787 117.649 328.92 117.965 329.054 118.196C329.187 118.426 329.309 118.608 329.43 118.73C329.539 118.851 329.649 118.948 329.734 119.009C329.819 119.07 329.892 119.118 329.952 119.155ZM324.561 114.31L322.947 108.203L321.186 113.218L324.561 114.31Z" fill="#BB5633"/>
<path d="M339.119 113.679C339.677 113.679 340.127 113.825 340.479 114.116C340.819 114.408 341.074 114.76 341.244 115.197C341.401 115.634 341.474 116.095 341.45 116.605C341.426 117.115 341.316 117.589 341.134 118.014C340.952 118.451 340.697 118.803 340.369 119.094C340.042 119.386 339.653 119.531 339.192 119.531H330.839C330.839 119.531 330.729 119.483 330.693 119.386C330.656 119.288 330.693 119.216 330.839 119.155C330.972 119.082 331.118 118.948 331.276 118.754C331.433 118.56 331.506 118.196 331.506 117.661V106.188C331.506 105.884 331.421 105.666 331.263 105.544C331.106 105.423 330.96 105.314 330.851 105.217C330.729 105.119 330.693 105.034 330.717 104.962C330.741 104.889 330.79 104.84 330.851 104.84H335.525C335.525 104.84 335.622 104.877 335.647 104.962C335.671 105.034 335.622 105.119 335.525 105.217C335.416 105.314 335.27 105.423 335.112 105.544C334.954 105.666 334.869 105.884 334.869 106.188V118.208H336.739C337.358 118.208 337.82 118.135 338.148 117.977C338.475 117.819 338.718 117.649 338.864 117.431C339.034 117.224 339.131 116.957 339.155 116.654C339.155 116.411 339.131 116.229 339.07 116.12C339.01 116.01 338.949 115.95 338.864 115.937C338.791 115.913 338.706 115.925 338.633 115.95C338.56 115.974 338.512 115.998 338.488 116.022C338.22 116.18 337.941 116.168 337.662 115.998C337.383 115.828 337.249 115.549 337.273 115.172C337.31 114.833 337.468 114.493 337.747 114.165C338.026 113.837 338.488 113.679 339.143 113.679H339.119Z" fill="#BB5633"/>
<path d="M347.193 119.155C347.326 119.216 347.375 119.288 347.339 119.386C347.302 119.483 347.254 119.531 347.193 119.531H342.518C342.518 119.531 342.409 119.483 342.373 119.386C342.336 119.288 342.373 119.216 342.518 119.155C342.652 119.082 342.798 118.948 342.956 118.754C343.113 118.56 343.186 118.196 343.186 117.661V106.188C343.186 105.884 343.101 105.666 342.943 105.544C342.786 105.423 342.64 105.314 342.531 105.217C342.409 105.119 342.373 105.034 342.397 104.962C342.421 104.889 342.47 104.84 342.531 104.84H347.205C347.205 104.84 347.302 104.877 347.326 104.962C347.351 105.034 347.302 105.119 347.205 105.217C347.096 105.314 346.95 105.423 346.792 105.544C346.634 105.666 346.549 105.884 346.549 106.188V117.661C346.549 118.196 346.622 118.56 346.78 118.754C346.938 118.948 347.084 119.082 347.217 119.155H347.193Z" fill="#BB5633"/>
<path d="M360.051 115.585C360.342 115.792 360.548 116.12 360.67 116.557C360.791 116.994 360.791 117.431 360.67 117.868C360.548 118.305 360.269 118.693 359.844 119.033C359.419 119.373 358.8 119.543 357.974 119.543C357.343 119.543 356.833 119.422 356.457 119.167C356.08 118.912 355.777 118.596 355.546 118.196C355.315 117.807 355.133 117.37 355 116.897C354.866 116.423 354.721 115.974 354.587 115.525C354.453 115.075 354.259 114.675 354.028 114.31C353.798 113.946 353.47 113.679 353.045 113.509C352.984 113.618 352.936 113.728 352.887 113.825C352.839 113.922 352.79 114.007 352.754 114.08C352.717 114.153 352.681 114.225 352.669 114.286V117.661C352.669 118.196 352.742 118.56 352.899 118.754C353.057 118.948 353.203 119.082 353.336 119.155C353.47 119.216 353.519 119.288 353.482 119.386C353.446 119.483 353.397 119.531 353.336 119.531H348.662C348.662 119.531 348.553 119.483 348.516 119.386C348.48 119.288 348.516 119.216 348.662 119.155C348.796 119.082 348.941 118.948 349.099 118.754C349.257 118.56 349.33 118.196 349.33 117.661V106.188C349.33 105.884 349.245 105.666 349.087 105.544C348.929 105.423 348.783 105.314 348.674 105.217C348.553 105.119 348.516 105.034 348.541 104.962C348.565 104.889 348.613 104.84 348.674 104.84H353.349C353.349 104.84 353.446 104.877 353.482 104.962C353.506 105.034 353.47 105.119 353.349 105.217C353.239 105.314 353.094 105.423 352.936 105.544C352.778 105.666 352.693 105.884 352.693 106.188V111.093C353.179 110.146 353.64 109.296 354.077 108.531C354.514 107.766 354.951 107.099 355.364 106.552C355.777 106.006 356.202 105.581 356.627 105.289C357.064 104.986 357.525 104.84 358.023 104.84C358.691 104.84 359.201 104.998 359.541 105.302C359.881 105.605 360.087 105.969 360.16 106.382C360.233 106.795 360.196 107.208 360.051 107.621C359.905 108.033 359.662 108.337 359.359 108.531C359.322 108.568 359.237 108.592 359.104 108.592C359.006 108.568 358.946 108.519 358.934 108.422C358.836 108.264 358.703 108.155 358.545 108.094C358.387 108.021 358.205 107.997 358.011 107.997C357.659 107.997 357.319 108.106 356.967 108.313C356.627 108.519 356.275 108.798 355.947 109.15C355.607 109.49 355.291 109.891 354.988 110.316C354.684 110.753 354.393 111.178 354.126 111.603C354.514 111.736 354.842 111.906 355.109 112.125C355.376 112.331 355.668 112.635 355.959 112.999C356.25 113.363 356.517 113.861 356.724 114.456C356.955 115.075 357.222 115.525 357.513 115.792C357.817 116.071 358.108 116.229 358.387 116.277C358.666 116.326 358.934 116.277 359.164 116.156C359.395 116.035 359.553 115.877 359.626 115.707C359.662 115.61 359.735 115.549 359.832 115.537C359.929 115.5 360.014 115.512 360.087 115.597L360.051 115.585Z" fill="#BB5633"/>
<path d="M94.1801 12.0685C93.6823 11.51 93.0267 11.4857 92.3225 11.6921C87.5874 13.0883 82.8644 14.4725 78.1293 15.8566C78.0079 15.893 77.8865 15.9173 77.7651 15.9537C77.4008 14.7638 77.0487 13.6226 76.6845 12.4691C75.5432 8.77818 74.4141 5.09936 73.2728 1.40841C73.1514 1.00774 72.9693 0.643503 72.6172 0.388536C71.7308 -0.242812 70.6624 -0.0971166 69.9946 0.777058C66.9957 4.6987 63.9968 8.63249 60.9979 12.5541C60.9129 12.6634 60.8279 12.7727 60.7187 12.8941C60.573 12.7848 60.4394 12.6877 60.3059 12.5906C56.3599 9.6645 52.4262 6.73844 48.4924 3.81239C47.8246 3.31459 47.1204 3.26603 46.4162 3.69097C45.7363 4.10378 45.5299 4.74727 45.6392 5.52431C46.7562 13.3919 47.254 24.744 48.371 32.6116C48.5167 33.6314 48.978 34.105 49.9979 34.2871C60.0509 36.084 70.0918 37.8688 80.1448 39.6657C81.1404 39.8478 81.7596 39.5443 82.2452 38.6458C84.2 35.0763 92.6382 17.3014 94.5929 13.7197C94.6779 13.5376 94.6901 13.3555 94.6901 13.1612C94.6901 12.712 94.4594 12.3599 94.2044 12.0685H94.1801Z" fill="#FEE543"/>
<path d="M53.1182 34.8334C52.936 31.7981 52.7054 19.0497 52.6447 18.3091L55.6193 20.5188C56.8455 21.4173 58.2782 21.8665 59.6988 21.8665C61.6778 21.8665 63.6447 21.0166 65.0045 19.3775C65.1988 19.1468 65.3323 18.989 65.4537 18.819L68.5376 14.7881L70.1767 20.0696C71.0873 23.0199 73.807 24.9261 76.7452 24.9261C77.3401 24.9261 77.935 24.8532 78.5421 24.6833C78.7728 24.6226 78.9185 24.5861 79.0641 24.5376L81.9538 23.6877C81.7109 24.1855 77.2429 36.3753 76.1624 38.9372L53.1303 34.8334H53.1182Z" fill="#F0AA04"/>
<path d="M297.219 37.8809C295.143 30.159 290.736 23.9184 279.529 21.9272C263.952 26.0431 258.452 35.3798 256.424 46.5134C269.828 41.584 278.886 35.4041 280.112 27.8522C282.334 32.2109 288.599 35.489 297.219 37.8687V37.8809Z" fill="#BB5633"/>
<path d="M252.648 16.5972C247.683 18.6369 243.785 20.5795 242.498 23.4085C254.555 20.3974 270.848 24.5862 316.755 19.5111C318.284 19.3411 319.802 18.8433 321.065 17.9449C321.745 17.4592 322.23 16.9493 322.607 16.4272C300.74 11.3764 281.63 11.7164 252.648 16.5972Z" fill="#BB5633"/>
</g>
<defs>
<clipPath id="clip0_624_1502">
<rect width="510.736" height="246.76" fill="white"/>
</clipPath>
</defs>
</svg>
